<?xml version="1.0" standalone="no"?>
<!DOCTYPE svg PUBLIC "-//W3C//DTD SVG 1.1//EN" "http://www.w3.org/Graphics/SVG/1.1/DTD/svg11.dtd" >
<svg xmlns="http://www.w3.org/2000/svg">
<metadata></metadata>
<defs>
<font id="fascinate_inlineregular" horiz-adv-x="500" >
<font-face units-per-em="1000" ascent="800" descent="-200" />
<missing-glyph horiz-adv-x="300" />
<glyph unicode="&#xfb01;" horiz-adv-x="948" d="M15 214v39q0 10 10 10h41v295q0 252 263 252q53 0 112.5 -12t93.5 -29q12 -5 12 -19v-35q0 -8 -6 -8q-3 0 -14 2.5t-22 2.5q-79 0 -79 -146v-303h78q11 0 11 -10v-39q0 -11 -11 -11h-78v-135q0 -38 -14 -53t-59 -15h-212q-44 0 -59.5 16t-15.5 52v135h-41q-10 0 -10 11z M347 41q24 0 31 5t7 26v514q0 41 6.5 70t19.5 44.5t24.5 23t27.5 13.5q-43 1 -79.5 -36t-36.5 -115v-545zM543 68v364q0 36 16 52t60 16h214q43 0 56.5 -15t13.5 -53v-365q0 -36 -13.5 -51.5t-56.5 -15.5h-214q-44 0 -60 16t-16 52zM562 709q0 67 48 115t115 48 q66 0 114 -48t48 -115t-48 -114.5t-114 -47.5q-67 0 -115 47.5t-48 114.5zM756 592q39 10 64.5 42.5t25.5 74.5t-25.5 74t-64.5 43q50 -50 50 -117t-50 -117zM824 41q24 0 31 5t7 26v356q0 21 -7 26t-31 5v-418z" />
<glyph unicode="&#xfb02;" horiz-adv-x="948" d="M15 214v39q0 10 10 10h41v295q0 252 283 252q49 0 106 -12t94 -28q13 30 70 30h214q42 0 56 -15.5t14 -52.5v-665q0 -36 -14.5 -51.5t-56.5 -15.5h-213q-44 0 -60 16t-16 52v642q-8 2 -19 2q-47 0 -72.5 -32.5t-25.5 -113.5v-303h78q11 0 11 -10v-39q0 -11 -11 -11h-78 v-135q0 -38 -14 -53t-59 -15h-212q-44 0 -59.5 16t-15.5 52v135h-41q-10 0 -10 11zM347 41q24 0 31 5t7 26v514q0 41 6.5 70t19.5 44.5t24.5 23t27.5 13.5q-43 1 -79.5 -36t-36.5 -115v-545zM824 41q24 0 31 5t7 26v656q0 21 -7 26t-31 5v-718z" />
<glyph unicode="&#xfb03;" horiz-adv-x="1430" d="M15 214v39q0 10 10 10h41v246q0 252 263 252q53 0 112.5 -12t93.5 -29q12 -5 12 -19v-34q0 -9 -6 -9q-3 0 -14 3t-22 3q-79 0 -79 -146v-255h121v295q0 252 264 252q53 0 112 -12t93 -29q13 -5 13 -19v-35q0 -8 -7 -8q-2 0 -13 2.5t-23 2.5q-78 0 -78 -146v-303h78 q10 0 10 -10v-39q0 -11 -10 -11h-78v-135q0 -38 -14 -53t-60 -15h-211q-44 0 -60 16t-16 52v135h-121v-135q0 -38 -14 -53t-59 -15h-212q-44 0 -59.5 16t-15.5 52v135h-41q-10 0 -10 11zM347 41q24 0 31 5t7 26v465q0 41 6.5 70t19.5 44.5t24.5 23t27.5 13.5 q-43 1 -79.5 -36t-36.5 -115v-496zM828 41q24 0 31 5t7 26v514q0 41 6.5 70t20 44.5t24.5 23t28 13.5q-44 1 -80.5 -36t-36.5 -115v-545zM1025 68v364q0 36 15.5 52t59.5 16h214q43 0 57 -15t14 -53v-365q0 -37 -14 -52t-57 -15h-214q-44 0 -59.5 16t-15.5 52zM1043 709 q0 67 47.5 115t115.5 48q67 0 114.5 -48t47.5 -115t-47.5 -114.5t-114.5 -47.5t-115 47.5t-48 114.5zM1237 592q39 10 64.5 42.5t25.5 74.5t-25.5 74t-64.5 43q50 -50 50 -117t-50 -117zM1305 41q24 0 31 5t7 26v356q0 21 -7 26t-31 5v-418z" />
<glyph unicode="&#xfb04;" horiz-adv-x="1430" d="M15 214v39q0 10 10 10h41v246q0 252 263 252q53 0 112.5 -12t93.5 -29q12 -5 12 -19v-34q0 -9 -6 -9q-3 0 -14 3t-22 3q-79 0 -79 -146v-255h121v295q0 252 283 252q49 0 106.5 -12t93.5 -28q14 30 70 30h214q43 0 57 -15.5t14 -52.5v-665q0 -36 -14.5 -51.5t-57.5 -15.5 h-213q-44 0 -59.5 16t-15.5 52v642q-10 2 -19 2q-47 0 -72.5 -32.5t-25.5 -113.5v-303h78q10 0 10 -10v-39q0 -11 -10 -11h-78v-135q0 -38 -14 -53t-60 -15h-211q-44 0 -60 16t-16 52v135h-121v-135q0 -38 -14 -53t-59 -15h-212q-44 0 -59.5 16t-15.5 52v135h-41 q-10 0 -10 11zM347 41q24 0 31 5t7 26v465q0 41 6.5 70t19.5 44.5t24.5 23t27.5 13.5q-43 1 -79.5 -36t-36.5 -115v-496zM828 41q24 0 31 5t7 26v514q0 41 6.5 70t20 44.5t24.5 23t28 13.5q-44 1 -80.5 -36t-36.5 -115v-545zM1305 41q24 0 31 5t7 26v656q0 21 -7 26t-31 5 v-718z" />
<glyph horiz-adv-x="1000" />
<glyph horiz-adv-x="1000" />
<glyph unicode="&#xd;" horiz-adv-x="1000" />
<glyph unicode=" "  horiz-adv-x="300" />
<glyph unicode="&#x09;" horiz-adv-x="300" />
<glyph unicode="&#xa0;" horiz-adv-x="300" />
<glyph unicode="!" horiz-adv-x="445" d="M60 554q0 68 48 115.5t115 47.5t114.5 -48t47.5 -115q0 -47 -56 -122.5t-61 -109.5q0 -10 -0.5 -21.5t-1.5 -21.5t-9.5 -16t-24.5 -6h-19q-16 0 -24.5 6t-9.5 16t-1.5 21.5t-0.5 21.5q-5 34 -61 109.5t-56 122.5zM110 103q0 46 33.5 79.5t80.5 33.5q46 0 79 -33t33 -80 t-33 -80t-79 -33q-47 0 -80.5 33.5t-33.5 79.5zM232 32q27 3 45 23t18 48t-18 48t-45 23q25 -30 25 -71t-25 -71zM233 336q6 34 33.5 72t52 74.5t24.5 71.5q0 47 -27 81t-71 47q58 -50 58 -128q0 -44 -33.5 -105.5t-36.5 -112.5z" gerber_lp="ddcc"/>
<glyph unicode="&#x22;" horiz-adv-x="346" d="M60 443v235q0 23 24 23h41q20 0 20 -23v-235q0 -23 -20 -23h-41q-24 0 -24 23zM201 443v235q0 23 24 23h41q20 0 20 -23v-235q0 -23 -20 -23h-41q-24 0 -24 23z" />
<glyph unicode="#" horiz-adv-x="465" d="M40 247v69q0 10 11 10h56l19 110h-47q-11 0 -11 11v69q0 10 12 10h61l26 152q4 23 27 23h15q18 0 18 -15q0 -2 -1 -8l-26 -152h111l26 152q4 23 27 23h15q18 0 18 -15q0 -3 -1 -8l-26 -152h45q10 0 10 -10v-69q0 -11 -10 -11h-60l-19 -110h50q10 0 10 -10v-69 q0 -11 -10 -11h-65l-25 -152q-4 -23 -24 -23h-15q-21 0 -21 15l1 8l25 152h-111l-25 -152q-4 -23 -24 -23h-15q-21 0 -21 15l1 8l25 152h-42q-10 0 -10 11zM167 326h110l19 110h-111z" />
<glyph unicode="$" horiz-adv-x="461" d="M30 68v41q0 5 5 5q1 0 5.5 -0.5t6.5 -0.5q28 0 45.5 22t17.5 62q0 36 -11 64.5t-24.5 44.5t-24.5 47t-11 72q0 71 42 119.5t111 73.5v109q0 15 6 19t17 4h35q21 0 21 -23v-89q36 6 73 6q23 0 59 -3q9 0 9 -9v-40q0 -7 -8 -7q-32 -2 -46 -17t-14 -51q0 -20 19 -53 t38.5 -78.5t19.5 -96.5q0 -68 -38.5 -124.5t-111.5 -85.5v-131q0 -23 -20 -23h-35q-24 0 -24 23v110q-38 -5 -72 -5q-49 0 -85 6q-5 2 -5 9zM231 102q68 25 108 72t40 115q0 50 -19 94.5t-38 79t-19 60.5q0 65 60 81q-47 -1 -73 -26.5t-26 -62.5q0 -29 38 -102t38 -125 q0 -120 -109 -186z" />
<glyph unicode="%" horiz-adv-x="754" d="M30 534q0 70 48.5 118.5t117.5 48.5q70 0 118.5 -48.5t48.5 -118.5q0 -69 -48.5 -117.5t-118.5 -48.5q-69 0 -117.5 48.5t-48.5 117.5zM128 27q0 6 6 15l422 655q9 13 17 13q7 0 16 -6l22 -16q11 -8 11 -16q0 -5 -5 -13l-423 -656q-10 -12 -18 -12q-3 0 -11 4l-23 15 q-14 8 -14 17zM134 534q0 -45 23.5 -71t62.5 -26q-22 3 -36.5 28.5t-14.5 68.5t14.5 69t36.5 30q-39 0 -62.5 -27t-23.5 -72zM207 534q0 -42 14.5 -62.5t36.5 -20.5t36.5 20.5t14.5 62.5q0 43 -14.5 63.5t-36.5 20.5t-36.5 -20.5t-14.5 -63.5zM391 166q0 71 44 119t112 48 q71 0 124 -49t53 -118t-48.5 -117.5t-118.5 -48.5q-69 0 -117.5 48.5t-48.5 117.5zM495 166q0 -45 23.5 -71.5t62.5 -26.5q-22 4 -36.5 29.5t-14.5 68.5t14.5 68.5t36.5 29.5q-39 0 -62.5 -26.5t-23.5 -71.5zM568 166q0 -42 14.5 -62.5t36.5 -20.5t36.5 20.5t14.5 62.5 q0 43 -14.5 63.5t-36.5 20.5t-36.5 -20.5t-14.5 -63.5z" />
<glyph unicode="&#x26;" horiz-adv-x="723" d="M29 483q0 94 83.5 158t229.5 64q177 0 298 -104q4 -2 4 -6q0 -1 -2 -5l-30 -49q-3 -3 -5 -3q-3 0 -3 2q-103 89 -207 89q-14 0 -18.5 -4.5t-4.5 -14.5v-274q0 -20 21 -20h287q11 0 11 -11v-46q0 -11 -11 -11h-45q-10 -140 -81.5 -197.5t-206.5 -57.5q-123 0 -197.5 40.5 t-74.5 117.5q0 56 38 91t97 43q-81 15 -132 65t-51 133zM294 69q22 -4 38 -4v564q-1 0 -8 -0.5t-15 -2t-15 -4.5v-553zM372 88q0 -23 33 -23q140 0 154 183h-165q-22 0 -22 -22v-138z" />
<glyph unicode="'" horiz-adv-x="205" d="M60 443v235q0 23 24 23h41q20 0 20 -23v-235q0 -23 -20 -23h-41q-24 0 -24 23z" />
<glyph unicode="(" horiz-adv-x="421" d="M50 300q0 100 24 185.5t65 144.5t82.5 98.5t87.5 65.5q10 6 18 6q14 0 14 -18v-965q0 -17 -14 -17q-8 0 -18 6q-46 26 -87.5 65t-82.5 98.5t-65 145t-24 185.5zM261 -116q24 -18 38 -28v890q-10 -7 -15.5 -11t-11.5 -8.5t-11 -8.5v-834z" />
<glyph unicode=")" horiz-adv-x="421" d="M80 -183v965q0 18 14 18q8 0 18 -6q46 -26 87.5 -65.5t82.5 -98.5t65 -144.5t24 -185.5t-24 -185.5t-65 -145t-82.5 -98.5t-87.5 -65q-10 -6 -18 -6q-14 0 -14 17zM154 -118q176 148 176 418q0 267 -176 412q135 -196 135 -412q0 -220 -135 -418z" />
<glyph unicode="*" horiz-adv-x="374" d="M20 579q0 4 1 7l21 45q6 10 14 10q5 0 8 -2l88 -49l-6 95q0 16 17 16h50q17 0 15 -16l-6 -95l88 49q3 2 8 2q8 0 14 -10l21 -45q1 -3 1 -7q0 -9 -10 -13l-97 -38l65 -81q4 -4 4 -10q0 -7 -8 -13l-41 -28q-6 -4 -9 -4q-8 2 -12 8l-59 97l-59 -97q-4 -6 -12 -8q-3 0 -9 4 l-41 28q-9 7 -8 13q0 5 3 10l65 81l-96 38q-10 4 -10 13z" />
<glyph unicode="+" d="M63 214v83q0 11 11 11h124v124q0 10 10 10h84q10 0 10 -10v-124h124q11 0 11 -11v-83q0 -11 -11 -11h-124v-124q0 -10 -10 -10h-84q-10 0 -10 10v124h-124q-11 0 -11 11z" />
<glyph unicode="," horiz-adv-x="326" d="M50 103q0 47 33 80t80 33t80 -33t33 -80q0 -24 -14 -60l-64 -150q-3 -7 -4 -9t-3.5 -6.5t-4.5 -5.5t-6 -2t-9 -1h-59q-14 0 -14 9q0 6 3 13l45 101q-41 6 -68.5 37.5t-27.5 73.5zM171 32q27 3 45 23t18 48t-18 48t-45 23q26 -31 26 -71t-26 -71z" />
<glyph unicode="-" horiz-adv-x="391" d="M49 175v117q0 10 10 10h273q10 0 10 -10v-117q0 -11 -10 -11h-273q-10 0 -10 11z" />
<glyph unicode="." horiz-adv-x="326" d="M50 103q0 47 33 80t80 33t80 -33t33 -80t-33 -80t-80 -33t-80 33t-33 80zM171 32q27 3 45 23t18 48t-18 48t-45 23q26 -31 26 -71t-26 -71z" gerber-lp="dc"/>
<glyph unicode="/" horiz-adv-x="314" d="M24 6q0 3 2 11l188 689q6 18 19 18q7 0 11 -2l30 -8q16 -6 16 -16q0 -6 -1 -10l-189 -689q-5 -18 -17 -18q-5 0 -8 1l-31 7q-20 4 -20 17z" />
<glyph unicode="0" horiz-adv-x="596" d="M30 249q0 111 78.5 189.5t189.5 78.5t189.5 -78.5t78.5 -189.5t-78.5 -189.5t-189.5 -78.5t-189.5 78.5t-78.5 189.5zM251 249q0 -71 35.5 -114.5t87.5 -43.5q-35 6 -58.5 47.5t-23.5 110.5t24 110.5t58 46.5q-52 0 -87.5 -43t-35.5 -114zM333 249q0 -68 23.5 -101.5 t58.5 -33.5t58.5 33.5t23.5 101.5t-23.5 101.5t-58.5 33.5t-58.5 -33.5t-23.5 -101.5z" />
<glyph unicode="1" horiz-adv-x="493" d="M0 445q0 9 3.5 13.5t17.5 6.5l333 49q4 0 12 1t13.5 1.5t7.5 0.5q20 0 32.5 -7.5t17 -24t5 -24t0.5 -25.5v-369q0 -17 -1 -24t-7 -19.5t-22 -18t-43 -5.5h-202q-40 0 -54.5 16t-14.5 52v345l-65 -22q-4 -2 -10 -2q-17 0 -18 13l-4 34q-1 8 -1 9zM362 41q25 0 31.5 5 t6.5 26v382q0 23 -17 23q-3 0 -10 -1.5t-11 -1.5v-433z" />
<glyph unicode="2" horiz-adv-x="510" d="M7 445q0 5 4 7q38 30 100 47.5t130 17.5q122 0 176 -52.5t54 -126.5q0 -70 -54 -140.5t-167 -132.5q178 9 232 9q28 0 28 -21v-33q0 -20 -25 -20h-443q-19 0 -19 13q0 7 13 24q44 59 73 133t29 132q0 118 -60 118q-9 0 -24.5 -7.5t-17.5 -7.5q-4 0 -6 3l-21 33q-2 2 -2 4 zM208 85q117 63 169.5 124.5t52.5 128.5q0 100 -102 132q62 -47 62 -132q0 -115 -182 -253z" />
<glyph unicode="3" horiz-adv-x="479" d="M12 -153q0 2 1 4l12 38q2 6 8 6q1 0 11 -3.5t26.5 -7.5t31.5 -4q45 0 72.5 38.5t27.5 103.5q0 122 -56 122q-8 0 -18.5 -5t-13.5 -5q-4 0 -7 3l-16 17q-3 3 -3 7t3 7l141 157h-163q-14 0 -22 5.5t-9.5 11t-1.5 13.5v121q0 10 8 17t24 7h347q16 0 25 -8.5t9 -20.5 q0 -17 -14 -33l-193 -205q98 -1 162.5 -55t64.5 -152q0 -97 -79.5 -159t-197.5 -62q-90 0 -173 33q-7 2 -7 9zM295 -144q133 47 133 170q0 126 -118 163q78 -56 78 -163t-93 -170z" />
<glyph unicode="4" horiz-adv-x="561" d="M15 42q0 8 4 26l90 364q9 37 26 52.5t60 15.5h138q63 0 63 -47q0 -17 -5 -34l-80 -349h78v139q0 22 20 22h53q22 0 22 -22v-139h67q10 0 10 -10v-49q0 -11 -10 -11h-67v-157q0 -23 -24 -23h-51q-20 0 -20 23v157h-307q-67 0 -67 42zM229 70h39l84 364q2 10 -2 17.5 t-14 7.5h-17z" />
<glyph unicode="5" horiz-adv-x="494" d="M3 -149l13 43q3 10 10 10q1 0 22.5 -8.5t42.5 -8.5q40 0 70.5 41t30.5 104q0 60 -16.5 94.5t-44.5 34.5q-16 0 -30 -13q-9 -7 -15 -7h-37q-10 0 -8 10l51 328q2 21 27 21h280q32 0 32 -25v-120q0 -30 -32 -30h-266l-17 -95q64 23 124 23q104 0 171.5 -58.5t67.5 -158.5 q0 -111 -79 -171t-208 -60q-106 0 -184 33q-8 4 -5 13zM299 -148q138 42 138 184q0 132 -124 172q84 -59 84 -172q0 -123 -98 -184zM360 361h20q15 0 15 14v75q0 14 -15 14h-20v-103z" gerber-lp="dcc"/>
<glyph unicode="6" horiz-adv-x="586" d="M30 244q0 141 97.5 264t244.5 199l4 2q5 2 7 2q7 0 13 -9l28 -46q3 -6 3 -9q0 -6 -12 -13q-110 -58 -190 -156q29 9 62 9q117 0 193 -73t76 -180q0 -111 -74.5 -182t-188.5 -71q-111 0 -187 74.5t-76 188.5zM242 239q0 -72 35.5 -112t85.5 -40q-35 4 -58 43.5t-23 108.5 t23.5 110t57.5 45q-50 0 -85.5 -41t-35.5 -114zM323 239q0 -68 23 -100t59 -32t59 32t23 100t-23.5 101.5t-58.5 33.5t-58.5 -33.5t-23.5 -101.5z" />
<glyph unicode="7" horiz-adv-x="503" d="M0 444v32q0 24 27 24h419q40 0 40 -37q0 -12 -5 -30l-134 -516q-14 -53 -60 -53h-195q-20 0 -31.5 12t-11.5 31q0 6 2 18l128 496l-151 -7q-14 0 -20.5 5.5t-7 10t-0.5 14.5zM262 -95h19q20 0 25 20l132 509q2 8 2 13q0 12 -14 12h-20z" />
<glyph unicode="8" horiz-adv-x="577" d="M30 172q0 118 123 177q-96 81 -96 167q0 93 62.5 146t168.5 53q99 0 166.5 -45.5t67.5 -139.5q0 -85 -83 -142q55 -44 81.5 -87.5t26.5 -100.5q0 -93 -72 -155.5t-208 -62.5q-98 0 -167.5 47.5t-69.5 142.5zM99 176q0 -55 34 -88t79 -33q44 0 66 27.5t22 62.5 q0 46 -24 81t-79 77q-47 -15 -72.5 -49t-25.5 -78zM212 566q0 -45 26 -84.5t63.5 -70t75 -61.5t63.5 -71.5t26 -87.5q0 -106 -93 -160q132 46 132 169q0 47 -26 89t-63.5 73.5t-75 62.5t-63.5 67.5t-26 75.5q0 46 20.5 71t50.5 31q-52 -1 -81 -30t-29 -74zM292 574 q0 -69 105 -146q26 16 41 43.5t15 58.5q0 49 -28 82.5t-66 33.5q-30 0 -48.5 -18t-18.5 -54z" />
<glyph unicode="9" horiz-adv-x="586" d="M30 264q0 105 77 179t186 74q112 0 187.5 -70t75.5 -183q0 -142 -97 -264t-245 -198q-1 0 -3 -1q-4 -2 -6 -2q-6 0 -12 9l-33 48q-2 4 -2 6q0 4 7 9q117 58 191 148q-25 -8 -57 -8q-118 0 -193.5 73t-75.5 180zM242 264q0 -73 36 -115.5t85 -42.5q-34 5 -57.5 47 t-23.5 111q0 70 23.5 111.5t57.5 45.5q-50 0 -85.5 -42t-35.5 -115zM323 264q0 -68 23.5 -101.5t58.5 -33.5t58.5 33.5t23.5 101.5t-23.5 101.5t-58.5 33.5t-58.5 -33.5t-23.5 -101.5z" />
<glyph unicode=":" horiz-adv-x="356" d="M65 103q0 47 33.5 80t79.5 33t79.5 -33t33.5 -80t-33.5 -80t-79.5 -33t-79.5 33t-33.5 80zM65 397q0 47 33.5 80t79.5 33t79.5 -33t33.5 -80t-33.5 -80t-79.5 -33t-79.5 33t-33.5 80zM187 32q27 3 45 23.5t18 47.5t-18 47.5t-45 23.5q25 -32 25 -71t-25 -71zM187 326 q27 3 45 23.5t18 47.5t-18 47.5t-45 23.5q25 -32 25 -71t-25 -71z" />
<glyph unicode=";" horiz-adv-x="356" d="M64 103q0 46 33.5 79.5t80.5 33.5q46 0 79.5 -33t33.5 -80q0 -26 -15 -60l-63 -150q-3 -7 -4 -9t-3.5 -6.5t-4.5 -5.5t-6 -2t-9 -1h-60q-14 0 -14 9q0 6 4 13l45 101q-41 6 -69 37.5t-28 73.5zM65 397q0 47 33.5 80t79.5 33t79.5 -33t33.5 -80t-33.5 -80t-79.5 -33 t-79.5 33t-33.5 80zM186 32q27 3 45 23t18 48t-18 48t-45 23q25 -30 25 -71t-25 -71zM187 326q27 3 45 23.5t18 47.5t-18 47.5t-45 23.5q25 -32 25 -71t-25 -71z" />
<glyph unicode="&#x3c;" d="M65 235v40q0 12 8 17l299 183q2 2 5 2q5 0 8 -6l42 -72q2 -3 2 -6q0 -5 -5 -8l-211 -130l211 -129q5 -3 5 -8q0 -4 -2 -6l-42 -72q-3 -6 -8 -6q-3 0 -5 2l-299 183q-8 5 -8 16z" />
<glyph unicode="=" d="M73 116v84q0 10 10 10h334q10 0 10 -10v-84q0 -11 -10 -11h-334q-10 0 -10 11zM73 312v83q0 10 10 10h334q10 0 10 -10v-83q0 -11 -10 -11h-334q-10 0 -10 11z" />
<glyph unicode="&#x3e;" d="M71 118q0 5 5 8l211 129l-211 130q-5 3 -5 8q0 3 2 6l42 72q3 6 8 6q3 0 5 -2l299 -183q8 -5 8 -17v-40q0 -11 -8 -16l-299 -183q-2 -2 -5 -2q-5 0 -8 6l-42 72q-2 2 -2 6z" />
<glyph unicode="?" horiz-adv-x="526" d="M33 664q0 4 6 7q73 51 207 51q123 0 181.5 -53t58.5 -126q0 -27 -4 -49t-19.5 -49.5t-42.5 -47t-77.5 -35.5t-119.5 -22v-60q0 -23 -20 -23h-44q-21 0 -21 23v116q0 2 5 7q46 22 66.5 62.5t20.5 79.5q0 47 -24.5 72.5t-69.5 25.5q-31 0 -67 -18q-6 -2 -8 -2q-3 0 -7 4 l-19 31q-2 2 -2 6zM68 103q0 47 33 80t80 33t80 -33t33 -80t-33 -80t-80 -33t-80 33t-33 80zM189 32q27 3 45 23t18 48t-18 48t-45 23q26 -31 26 -71t-26 -71zM328 391q70 24 93 62t23 90q0 104 -116 140q76 -51 76 -140q0 -103 -76 -152z" />
<glyph unicode="@" horiz-adv-x="848" d="M49 341q0 163 115.5 272.5t276.5 109.5t259.5 -92.5t98.5 -249.5q0 -104 -67.5 -173t-163.5 -69h-162q-77 0 -125.5 32t-48.5 106q0 67 50.5 100.5t115.5 39.5v14q0 47 -45 47q-25 0 -50.5 -14t-27.5 -14q-7 0 -9 6l-12 25q-2 6 -2 8q0 5 7 10q27 22 72 38.5t95 16.5 q94 0 144 -36t50 -140v-163q49 13 78 59t29 107q0 126 -75.5 198t-210.5 72q-130 0 -225 -88.5t-95 -221.5q0 -127 90 -211.5t220 -84.5q64 0 109 16q1 0 5.5 1.5t7 1.5t6.5 -2t6 -7l18 -41q4 -11 -7 -16q-1 -1 -2 -1q-60 -24 -143 -24q-160 0 -271 105.5t-111 262.5z M301 276q0 -74 97 -74v153q-47 0 -72 -21.5t-25 -57.5zM488 519q53 -40 53 -141v-176h38v176q0 69 -23 100.5t-68 40.5z" />
<glyph unicode="A" horiz-adv-x="710" horiz-adv-x-orig="610" d="M5 12q0 8 6 25l204 618q8 24 17.5 34.5t25.5 11.5h73q17 0 26 -9t19 -36l225 -599q4 -12 4 -23q0 -16 -10 -25t-23 -9h-277q-39 0 -48 29l-6 17h-137l-3 -15q-3 -12 -5 -17t-8.5 -9.5t-16.5 -4.5h-50q-16 0 -16 12zM119 106h106l-55 191zM291 660l230 -619h24q18 0 11 17 l-220 587q-4 10 -9 12.5t-19 2.5h-17" />
<glyph unicode="B" horiz-adv-x="642" d="M45 68v565q0 36 15.5 52t59.5 16h218q118 0 195.5 -58t78.5 -179q0 -176 -110 -228q72 -22 72 -97q0 -43 -20 -72.5t-56 -43t-72 -18.5t-83 -5h-223q-44 0 -59.5 16t-15.5 52zM330 64q9 0 22.5 0.5t15.5 0.5v572q-10 2 -38 2v-575zM409 68q48 1 72 19.5t24 45.5 q0 28 -23.5 47.5t-72.5 22.5v-135zM409 267q67 9 100.5 61t33.5 128q0 154 -134 174v-363z" gerber-lp="dccc"/>
<glyph unicode="C" horiz-adv-x="609" d="M30 353q0 105 29.5 181t79 115.5t103 57t113.5 17.5q74 0 136.5 -20.5t97.5 -47.5q6 -6 6 -8l-2 -4l-21 -34q-3 -4 -7 -4l-21 10q-20 11 -39 11q-106 0 -106 -274q0 -275 106 -275q19 0 39 10l21 11q4 0 7 -4l21 -33q2 -4 2 -5q0 -2 -6 -8q-35 -27 -97.5 -47.5 t-136.5 -20.5q-47 0 -90.5 10t-87 36.5t-75.5 67t-52 107t-20 151.5zM316 353q0 -70 8.5 -122.5t21 -83t32.5 -51.5t36.5 -29.5t39.5 -14.5q-14 9 -19.5 13t-23.5 27t-27 51t-18 83.5t-9 126.5t9 126t18 83.5t27 51t23.5 26.5t19.5 13q-23 -6 -39.5 -14.5t-36.5 -29.5 t-32.5 -51.5t-21 -83t-8.5 -121.5z" gerber-lp="dc"/>
<glyph unicode="D" horiz-adv-x="680" d="M45 68v565q0 36 15.5 52t59.5 16h235q48 0 87.5 -7t79.5 -28.5t67 -56.5t44 -95t17 -141q0 -94 -18 -163.5t-46 -109t-69.5 -63t-80 -30.5t-86.5 -7h-230q-44 0 -59.5 16t-15.5 52zM330 67h38v567h-38v-567zM409 68q87 1 129.5 83t42.5 212q0 267 -172 270v-565z" />
<glyph unicode="E" horiz-adv-x="639" d="M45 68v548q0 52 22 68.5t67 16.5h441q26 0 26 -24v-35q0 -16 -18 -16q-12 0 -55.5 6t-81.5 12l-37 6v-124h182q10 0 10 -10v-49q0 -11 -10 -11h-182v-396q169 25 190 25q20 0 20 -16v-45q0 -24 -25 -24h-475q-44 0 -59 16t-15 52zM330 49l38 5v603l-38 5v-613z" />
<glyph unicode="F" horiz-adv-x="621" d="M45 68v548q0 52 22 68.5t67 16.5h453q24 0 24 -24v-45q0 -16 -20 -16q-11 0 -57 8.5t-86 17.5l-40 8v-124h182q10 0 10 -10v-49q0 -11 -10 -11h-182v-383q0 -29 -16 -51t-58 -22h-215q-44 0 -59 16t-15 52zM329 41q24 0 31 5t7 26v585l-38 8v-624z" />
<glyph unicode="G" horiz-adv-x="662" d="M30 373q0 99 29.5 171t79 109.5t103 54t113.5 16.5q74 0 136.5 -20.5t97.5 -47.5q6 -6 6 -8l-2 -4l-21 -34q-3 -4 -7 -4l-21 10q-20 11 -39 11q-106 0 -106 -254q0 -78 10 -133.5t27 -81.5t33.5 -37t35.5 -11q15 0 27 6v187q0 23 20 23h51q24 0 24 -23v-280 q0 -23 -24 -23h-51q-20 0 -20 23v14q-77 -56 -182 -56q-47 0 -88.5 9t-85 35.5t-75 68.5t-51.5 113.5t-20 165.5zM316 373q0 -80 12 -137t33.5 -87t43 -44.5t49.5 -21.5q-97 57 -97 290q0 66 9 117.5t18 78t27 47.5t23.5 25t19.5 12q-29 -7 -49.5 -19.5t-42.5 -41t-34 -84 t-12 -135.5z" />
<glyph unicode="H" horiz-adv-x="662" d="M45 68v565q0 36 15.5 52t59.5 16h218q25 0 41 -6.5t22 -20.5t7 -23t1 -26v-5v-294h83v352q0 23 22 23h50q8 0 12 -1t7.5 -6.5t3.5 -15.5v-352h47q10 0 10 -10v-49q0 -11 -10 -11h-47v-233q0 -15 -5.5 -19t-17.5 -4h-52q-20 0 -20 23v233h-83v-177q0 -14 -2 -25t-9 -25 t-24.5 -21.5t-44.5 -7.5h-209q-44 0 -59.5 16t-15.5 52zM330 41q24 0 31 5t7 26v557q0 21 -7 26t-31 5v-619z" />
<glyph unicode="I" horiz-adv-x="455" d="M45 68v565q0 36 15.5 52t59.5 16h218q25 0 41 -6.5t22 -20.5t7 -23t1 -26v-5v-541q0 -14 -2 -25t-9 -25t-24.5 -21.5t-44.5 -7.5h-209q-44 0 -59.5 16t-15.5 52zM330 41q24 0 31 5t7 26v557q0 21 -7 26t-31 5v-619z" />
<glyph unicode="J" horiz-adv-x="540" d="M10 29v38q0 10 7 10q1 0 18.5 -4.5t34.5 -4.5q61 0 61 76v489q0 20 3 32.5t20 24t48 11.5h218q44 0 59.5 -16t15.5 -52v-387q0 -265 -287 -265q-125 0 -189 33q-9 3 -9 15zM387 69q36 31 51.5 74t15.5 112v374q0 21 -7 26t-31 5v-421q0 -108 -29 -170z" />
<glyph unicode="K" horiz-adv-x="617" d="M45 68v565q0 36 15.5 52t59.5 16h218q31 0 48 -12t20 -25t3 -33v-57l122 118q15 15 23 15q7 0 17 -10l27 -29q7 -6 7 -14q0 -9 -11 -19l-150 -116q69 -7 101 -40t32 -97v-359q0 -23 -24 -23h-41q-20 0 -20 23v364q0 44 -18 60.5t-65 18.5v-387q0 -14 -2 -25t-9 -25 t-24.5 -21.5t-44.5 -7.5h-209q-44 0 -59.5 16t-15.5 52zM330 41q24 0 31 5t7 26v557q0 21 -7 26t-31 5v-619z" />
<glyph unicode="L" horiz-adv-x="579" d="M45 68v565q0 36 15.5 52t59.5 16h218q25 0 41 -6.5t22 -20.5t7 -23t1 -26v-5v-553q120 18 141 18q19 0 19 -16v-45q0 -10 -8.5 -17t-23.5 -7h-418q-44 0 -59 16t-15 52zM330 56l38 6v567q0 21 -7 26t-31 5v-604z" />
<glyph unicode="M" horiz-adv-x="874" d="M45 28v621q0 22 13.5 37t42.5 15h157q38 0 56 -28l131 -209l88 169q14 26 21 37t26.5 21t48.5 10h130q70 0 70 -62v-571q0 -35 -14 -51.5t-56 -16.5h-226q-39 0 -53.5 16t-14.5 52v241l-115 -211q-18 -32 -46 -32q-27 0 -46 31l-121 208q10 -233 12 -273q2 -32 -26 -32 h-54q-24 0 -24 28zM226 660l175 -279l20 37l-143 228q-9 14 -28 14h-24zM750 41q24 0 31 5t7 26v557q0 21 -7 26t-31 5v-619z" />
<glyph unicode="N" horiz-adv-x="674" d="M45 28v637q0 36 40 36h165q28 0 56 -28l238 -236q-17 206 -20 241q-2 23 22 23h59q24 0 24 -28v-637q0 -36 -34 -36h-170q-24 0 -45 21l-250 261q17 -224 20 -259q2 -23 -20 -23h-61q-24 0 -24 28zM208 660l336 -334v52l-272 269q-12 13 -29 13h-35z" />
<glyph unicode="O" horiz-adv-x="710" d="M30 353q0 107 28 183t76.5 115t102.5 56t118 17t118 -17t102.5 -56t76.5 -115t28 -183t-28 -183t-76.5 -115.5t-102.5 -56.5t-118 -17t-118 17t-102.5 56.5t-76.5 115.5t-28 183zM317 353q0 -121 43 -180.5t108 -62.5q-45 9 -78 69.5t-33 173.5t33 173.5t78 69.5 q-65 -3 -108 -62.5t-43 -180.5zM399 353q0 -113 30.5 -163.5t75.5 -50.5t75.5 50.5t30.5 163.5t-30.5 163.5t-75.5 50.5t-75.5 -50.5t-30.5 -163.5z" />
<glyph unicode="P" horiz-adv-x="632" d="M45 68v565q0 36 15.5 52t59.5 16h218q42 0 80 -6t74 -21t62 -38t42 -59.5t16 -83.5q0 -111 -55 -163.5t-148 -67.5v-183q0 -14 -2 -25t-9 -25t-24.5 -21.5t-44.5 -7.5h-209q-44 0 -59.5 16t-15.5 52zM330 41q24 0 31 5t7 26v564q-14 1 -38 1v-596zM409 327q68 10 101 53 t33 106q0 128 -134 144v-303z" gerber-lp="dcc"/>
<glyph unicode="Q" horiz-adv-x="710" d="M30 353q0 107 28 183t76.5 115t102.5 56t118 17t118 -17t102.5 -56t76.5 -115t28 -183q0 -154 -58 -244l68 -98q6 -9 6 -14q0 -12 -15 -21l-31 -17q-8 -4 -14 -4q-14 0 -21 15l-44 80q-83 -69 -216 -69q-64 0 -118 17t-102.5 56.5t-76.5 115.5t-28 183zM317 353 q0 -121 43 -180.5t108 -62.5q-45 9 -78 69.5t-33 173.5t33 173.5t78 69.5q-65 -3 -108 -62.5t-43 -180.5zM399 353q0 -113 30.5 -163.5t75.5 -50.5q5 0 17 2l-24 45q-7 14 5 21l23 12q12 8 22 -6l25 -35q38 55 38 175q0 113 -30.5 163.5t-75.5 50.5t-75.5 -50.5 t-30.5 -163.5z" />
<glyph unicode="R" horiz-adv-x="646" d="M45 68v565q0 36 15.5 52t59.5 16h218q56 0 102.5 -14t86.5 -45t62.5 -87.5t22.5 -135.5q0 -169 -79 -250l98 -129q5 -8 5 -13q0 -11 -16 -22l-30 -17q-8 -4 -14 -4q-13 0 -21 15l-68 134q-35 -19 -78 -29v-36q0 -34 -16 -51t-57 -17h-216q-44 0 -59.5 16t-15.5 52z M330 41q24 0 31 5t7 26v564q-14 1 -38 1v-596zM409 168q134 31 134 242q0 193 -134 219v-461z" />
<glyph unicode="S" horiz-adv-x="631" d="M3 18q0 3 1 5l8 37q1 5 6 5q95 0 107 123l34 345q7 68 46 111t90 58.5t114 15.5q110 0 214 -24q5 -2 5 -5t-1 -6l-7 -35q-1 -5 -6 -5q-77 0 -86 -98l-29 -355q-8 -91 -75.5 -150t-183.5 -59q-97 0 -231 31q-6 2 -6 6zM310 27q69 16 106.5 62.5t41.5 100.5l29 355 q9 93 69 107q-33 -1 -55 -11t-32.5 -27.5t-14.5 -32.5t-6 -36l-30 -355q-4 -47 -32.5 -91.5t-75.5 -71.5z" />
<glyph unicode="T" horiz-adv-x="690" d="M10 622v55q0 10 8.5 17t23.5 7h606q16 0 24 -7t8 -17v-55q0 -16 -19 -16q-10 0 -43.5 6t-61.5 12l-29 6v-563q0 -35 -15 -51t-57 -16h-218q-44 0 -59 16t-15 52v562q-112 -24 -134 -24q-19 0 -19 16zM447 41q25 0 31.5 5t6.5 26v568l-38 8v-607z" gerber-lp="dc"/>
<glyph unicode="U" horiz-adv-x="632" d="M45 252v381q0 36 15.5 52t59.5 16h218q25 0 41 -6.5t22 -20.5t7 -23t1 -26v-5v-547q43 8 63 40.5t20 94.5v470q0 23 20 23h51q24 0 24 -23v-426q0 -271 -275 -271q-56 0 -99 10.5t-83.5 38t-62.5 83.5t-22 139zM330 67h38v562q0 21 -7 26t-31 5v-593" />
<glyph unicode="V" horiz-adv-x="600" d="M0 667q0 16 10 25t23 9h277q23 0 34 -9.5t17 -28.5l74 -259l67 257q8 30 16 36q6 4 16 4h49q16 0 16 -13q0 -10 -5 -24l-204 -618q-8 -25 -18 -35.5t-30 -10.5h-68q-13 0 -23 8.5t-13.5 15.5t-8.5 21l-224 599q-5 11 -5 23zM281 660l115 -405l19 72l-91 318q-4 15 -21 15 h-22z" />
<glyph unicode="W" horiz-adv-x="920" d="M0 668q0 33 34 33h206q40 0 49 -29l104 -316l32 123l-50 165q-5 15 -5 25q0 32 33 32h207q39 0 49 -29l85 -316l79 305q1 2 2 6.5t1.5 6.5t1.5 5.5t2 5.5t2 4.5t2.5 4t3.5 3t4 2.5t5 1.5t6 0.5h48q18 0 18 -13q0 -6 -5 -24l-194 -618q-14 -46 -47 -46h-69q-31 0 -45 45 l-88 288l-81 -287q-12 -46 -44 -46h-82q-13 0 -23 8.5t-13.5 15.5t-8.5 21l-214 599q-5 11 -5 24zM215 660l143 -438l17 68l-115 354q-5 16 -23 16h-22zM587 660l120 -449l19 73l-96 358q-5 18 -20 18h-23z" />
<glyph unicode="X" horiz-adv-x="668" d="M10 15q0 8 8 22l152 273l-151 334q-6 14 -6 23q0 16 10.5 25t23.5 9h277q34 0 49 -29l61 -134l63 123q7 14 11.5 21t13.5 13t21 6h56q17 0 17 -14q0 -9 -8 -23l-128 -229l172 -378q6 -13 6 -23q0 -16 -10.5 -25t-23.5 -9h-277q-35 0 -49 29l-82 179l-87 -168 q-6 -11 -8.5 -15.5t-8.5 -12t-13 -10t-16 -2.5h-56q-17 0 -17 15zM294 660l281 -619h18q24 0 14 20l-266 583q-7 16 -23 16h-24z" />
<glyph unicode="Y" horiz-adv-x="600" d="M0 667q0 16 10 25t23 9h267q40 0 49 -29l86 -236l78 225q1 2 2.5 7t2.5 7t2.5 6t3 5.5t3.5 4.5t3.5 4.5t4.5 3t6 2t7 0.5h45q17 0 17 -13q0 -9 -6 -24l-111 -282v-314q0 -35 -15.5 -51.5t-54.5 -16.5h-231q-36 0 -49.5 16t-13.5 52v303l-124 273q-5 11 -5 23zM271 660 l143 -390v-229q24 0 31 5t7 26v201l-137 372q-4 15 -21 15h-23z" />
<glyph unicode="Z" horiz-adv-x="646" d="M27 30q0 18 18 64l205 532q-156 -30 -177 -30t-21 16v65q0 24 28 24h500q38 0 38 -28q0 -16 -12 -46l-212 -552q183 30 201 30q21 0 21 -16v-65q0 -24 -28 -24h-521q-40 0 -40 30zM301 61l44 6l218 568q4 10 4 14q0 11 -15 11h-20z" />
<glyph unicode="[" horiz-adv-x="445" d="M70 -158v915q0 23 24 23h321q10 0 10 -10v-49q0 -11 -10 -11h-80v-821h80q10 0 10 -11v-48q0 -11 -10 -11h-321q-24 0 -24 23zM255 -111h38v821h-38v-821z" />
<glyph unicode="\" horiz-adv-x="314" d="M24 698q0 10 17 16l30 8q4 2 11 2q14 0 18 -18l188 -689q2 -8 2 -11q0 -13 -19 -17l-32 -7q-2 -1 -7 -1q-13 0 -18 18l-188 689q-2 8 -2 10z" />
<glyph unicode="]" horiz-adv-x="445" d="M21 -122q0 11 10 11h80v821h-80q-10 0 -10 11v49q0 10 10 10h321q24 0 24 -23v-915q0 -23 -24 -23h-321q-10 0 -10 11v48zM296 -111h38v821h-38v-821z" />
<glyph unicode="^" d="M38 491q0 2 2 6l159 196q7 8 16 8h70q9 0 16 -8l159 -196q2 -4 2 -6t-6 -8l-62 -52q-2 -2 -7 -2q-2 0 -8 6l-129 163l-129 -165q-4 -4 -8 -4q-5 0 -7 2l-62 52q-6 6 -6 8z" />
<glyph unicode="_" horiz-adv-x="402" d="M0 -151q0 10 10 10h382q10 0 10 -10v-88q0 -11 -10 -11h-382q-10 0 -10 11v88z" />
<glyph unicode="`" horiz-adv-x="400" d="M56 691q0 4 4 8l44 63q5 5 8 5q2 0 7 -3l173 -131q4 -6 4 -8q0 -3 -3 -6l-33 -48q-2 -5 -8 -5q-3 0 -6 3l-185 115q-5 3 -5 7z" />
<glyph unicode="a" horiz-adv-x="630" d="M31 163q0 79 55 119.5t139 48.5v33q0 24 -9 37t-18.5 16t-23.5 3q-31 0 -77 -27q-7 -5 -11 -5t-8 6l-16 26q-3 4 -3 8q0 6 9 11q37 26 102 45.5t137 19.5q50 0 86 -3.5t74.5 -17t62.5 -36.5t39.5 -64.5t15.5 -98.5v-218q0 -35 -15.5 -50.5t-59.5 -15.5h-261 q-58 0 -104.5 13.5t-80 52t-33.5 97.5zM100 163q0 -101 125 -101v207q-66 0 -95.5 -30t-29.5 -76zM460 445q45 -45 45 -149v-255q25 0 31.5 5t6.5 26v222q0 124 -83 151z" gerber_lp="dcc"/>
<glyph unicode="b" horiz-adv-x="644" d="M45 247v486q0 36 15.5 52t59.5 16h214q40 0 55.5 -16.5t15.5 -53.5v-231q213 -39 213 -252q0 -74 -25.5 -126.5t-70 -80t-94.5 -39.5t-110 -12q-129 0 -201 67.5t-72 189.5zM325 50q23 0 38 3v675q0 21 -7 26t-31 5v-709zM405 60q73 9 108.5 59t35.5 129t-35.5 129.5 t-108.5 59.5v-377z" gerber_lp="dcc"/>
<glyph unicode="c" horiz-adv-x="589" d="M26 247q0 72 26 125.5t70 83.5t95.5 44t109.5 14q75 0 141.5 -20.5t101.5 -47.5q6 -4 6 -9q0 -3 -2 -6l-17 -27q-6 -7 -11 -7l-20 10q-19 10 -39 10q-40 0 -73 -40.5t-33 -129.5t33 -129t73 -40q20 0 41 10l21 11q5 0 11 -7l17 -26q2 -3 2 -7q0 -5 -6 -9 q-98 -70 -246 -70q-58 0 -109.5 14t-95.5 44t-70 83.5t-26 125.5zM299 247q0 -95 43 -141t104 -47q-40 8 -73.5 53.5t-33.5 134.5t33.5 135t73.5 55q-61 -2 -104 -48.5t-43 -141.5z" gerber_lp="dc"/>
<glyph unicode="d" horiz-adv-x="644" d="M26 253q0 208 213 247v231q0 37 14 53t57 16h214q44 0 59.5 -16t15.5 -52v-664q0 -36 -15.5 -52t-59.5 -16h-213q-58 2 -105.5 15t-90 40.5t-66 78t-23.5 119.5zM95 252q0 -76 35.5 -125t108.5 -58v368q-73 -8 -108.5 -58t-35.5 -127zM520 41q24 0 31 5t7 26v656 q0 21 -7 26t-31 5v-718z" gerber_lp="dcc"/>
<glyph unicode="e" horiz-adv-x="640" d="M26 250q0 72 26 125.5t70 83.5t95.5 44t109.5 14q132 0 209.5 -62.5t77.5 -202.5v-27q0 -19 -19 -19h-202q8 -67 34.5 -96t59.5 -29q15 0 30 5.5t24.5 11.5t11.5 6q6 0 10 -6l18 -27q2 -3 2 -7t-6 -8q-99 -73 -250 -73q-59 0 -110 14t-95 43.5t-70 83t-26 126.5zM309 247 q0 -97 44.5 -145.5t101.5 -47.5q-41 8 -73.5 52.5t-32.5 140.5q0 91 30.5 135.5t75.5 51.5q-64 -2 -105 -48t-41 -139zM391 266h154q0 134 -76 134q-73 0 -78 -134" gerber_lp="dcc"/>
<glyph unicode="f" horiz-adv-x="547" d="M15 214v39q0 10 10 10h41v295q0 252 263 252q53 0 112.5 -12t93.5 -29q12 -5 12 -19v-35q0 -8 -6 -8q-3 0 -14 2.5t-22 2.5q-79 0 -79 -146v-303h98q10 0 10 -10v-39q0 -11 -10 -11h-98v-135q0 -38 -14 -53t-59 -15h-212q-44 0 -59.5 16t-15.5 52v135h-41q-10 0 -10 11z M347 41q24 0 31 5t7 26v514q0 41 6.5 70t19.5 44.5t24.5 23t27.5 13.5q-43 1 -79.5 -36t-36.5 -115v-545z" gerber_lp="dc"/>
<glyph unicode="g" horiz-adv-x="670" d="M26 283q0 63 26 110t70 73t95.5 38.5t109.5 12.5q172 0 247 -79l53 55q10 10 20 10q6 0 14 -6l24 -26q6 -6 6 -14q0 -11 -12 -20l-71 -49q20 -43 20 -101q0 -57 -18.5 -101t-47.5 -69t-70.5 -41t-80.5 -21.5t-84 -5.5q-81 0 -144 21v-9q0 -69 89 -69q36 0 94.5 10 t91.5 10q51 0 89 -34.5t38 -93.5q0 -32 -16 -87q-3 -9 -13 -9h-36q-9 0 -12 8q-10 23 -72 23q-34 0 -107 -10t-119 -10q-83 0 -124 48.5t-41 108.5q0 84 70 148q-89 62 -89 179zM314 283q0 -72 35.5 -107.5t87.5 -35.5q-33 4 -58 40t-25 103q0 65 28 100.5t55 40.5 q-45 0 -84 -35.5t-39 -105.5zM395 283q0 -70 22.5 -93.5t61.5 -23.5q80 0 80 120q0 35 -8 61l-33 -23q-4 -3 -8 -3q-7 0 -10 5l-10 11q-2 2 -2 7q0 7 4 10l31 33q-19 13 -44 13q-84 0 -84 -117zM471 -28q33 -33 33 -88q0 -22 -4 -34q24 -3 35 -21q8 16 8 55q0 36 -19 60 t-53 28z" gerber_lp="dccc"/>
<glyph unicode="h" horiz-adv-x="608" d="M45 68v664q0 36 15.5 52t59.5 16h214q42 0 56.5 -15.5t14.5 -52.5v-241q24 19 59 19q47 0 73 -32.5t26 -94.5v-360q0 -23 -24 -23h-31q-20 0 -20 23v365q0 57 -42 57q-22 0 -41 -19v-358q0 -37 -13 -52.5t-57 -15.5h-226q-37 0 -50.5 16t-13.5 52zM325 41q24 0 31 5t7 26 v656q0 21 -7 26t-31 5v-718z" gerber_lp="dc"/>
<glyph unicode="i" horiz-adv-x="450" d="M45 68v364q0 36 15.5 52t59.5 16h214q43 0 57 -15t14 -53v-365q0 -37 -14 -52t-57 -15h-214q-44 0 -59.5 16t-15.5 52zM63 709q0 67 47.5 115t115.5 48q67 0 114.5 -48t47.5 -115t-47.5 -114.5t-114.5 -47.5t-115 47.5t-48 114.5zM257 592q39 10 64.5 42.5t25.5 74.5 t-25.5 74t-64.5 43q50 -50 50 -117t-50 -117zM325 41q24 0 31 5t7 26v356q0 21 -7 26t-31 5v-418z" gerber_lp="ddcc"/>
<glyph unicode="j" horiz-adv-x="450" d="M-66 -128q0 10 7 10q1 0 14 -3t29 -3q61 0 61 76v480q0 14 2 23.5t8.5 21t21.5 17.5t39 6h214q44 0 59.5 -16t15.5 -52v-379q0 -265 -282 -265q-119 0 -180 32q-9 6 -9 16v36zM63 709q0 67 47.5 115t115.5 48q67 0 114.5 -48t47.5 -115t-47.5 -114.5t-114.5 -47.5 t-115 47.5t-48 114.5zM257 592q39 10 64.5 42.5t25.5 74.5t-25.5 74t-64.5 43q50 -50 50 -117t-50 -117zM296 -127q37 31 52 74.5t15 113.5v367q0 21 -7 26t-31 5v-415q0 -111 -29 -171z" />
<glyph unicode="k" horiz-adv-x="594" d="M45 68v664q0 36 15.5 52t59.5 16h214q43 0 57 -16t14 -52v-353l117 117q9 9 19 9q8 0 15 -7l25 -25q5 -7 5 -13q0 -11 -16 -22l-153 -113q80 -2 113 -35.5t33 -102.5v-164q0 -23 -24 -23h-31q-20 0 -20 23v169q0 44 -18 60.5t-65 18.5v-204q0 -36 -16.5 -51.5 t-63.5 -15.5h-205q-44 0 -59.5 16t-15.5 52zM325 41q24 0 31 5t7 26v656q0 21 -7 26t-31 5v-718z" gerber-lp="dc"/>
<glyph unicode="l" horiz-adv-x="450" d="M45 68v664q0 36 15.5 52t59.5 16h214q43 0 57 -15.5t14 -52.5v-665q0 -36 -14.5 -51.5t-57.5 -15.5h-213q-44 0 -59.5 16t-15.5 52zM325 41q24 0 31 5t7 26v656q0 21 -7 26t-31 5v-718z" gerber_lp="dc"/>
<glyph unicode="m" horiz-adv-x="766" d="M45 68v364q0 36 15.5 52t59.5 16h200q47 0 59 -20q39 30 85 30t70 -30q34 30 88 30q47 0 73 -32.5t26 -94.5v-360q0 -23 -24 -23h-31q-20 0 -20 23v365q0 57 -42 57q-24 0 -44 -22q3 -18 3 -40v-360q0 -23 -24 -23h-31q-20 0 -20 23v365q0 57 -42 57q-22 0 -41 -19v-358 q0 -36 -15.5 -52t-59.5 -16h-210q-44 0 -59.5 16t-15.5 52zM325 41q24 0 31 5t7 26v356q0 17 -9 24t-29 7v-418z" gerber-lp="dc"/>
<glyph unicode="n" horiz-adv-x="608" d="M45 68v364q0 36 15.5 52t59.5 16h200q49 0 60 -20q39 30 84 30q47 0 73 -32.5t26 -94.5v-360q0 -23 -24 -23h-31q-20 0 -20 23v365q0 57 -42 57q-22 0 -41 -19v-358q0 -36 -15.5 -52t-59.5 -16h-210q-44 0 -59.5 16t-15.5 52zM325 41q24 0 31 5t7 26v356q0 17 -9 24 t-29 7v-418z" gerber_lp="dc"/>
<glyph unicode="o" horiz-adv-x="654" d="M26 250q0 72 26 125.5t70 83.5t95.5 44t109.5 14q45 0 84 -6t80 -23.5t70 -45.5t48 -76.5t19 -111.5q0 -65 -18.5 -115t-47.5 -79t-70.5 -47t-80.5 -24t-84 -6q-59 0 -110 14t-95 43.5t-70 83t-26 126.5zM313 250q0 -92 37.5 -130.5t89.5 -38.5q-39 7 -62.5 43t-23.5 126 q0 147 86 169q-45 0 -86 -39.5t-41 -129.5zM395 250q0 -90 21.5 -120t60.5 -30q82 0 82 154q0 146 -82 146t-82 -150z" gerber_lp="dcc"/>
<glyph unicode="p" horiz-adv-x="644" d="M45 -133v391q0 121 73 187t207 66q58 0 107.5 -13t92.5 -41t68 -80t25 -124q0 -115 -59.5 -176.5t-153.5 -76.5v-133q0 -37 -14.5 -52.5t-56.5 -15.5h-214q-44 0 -59.5 16t-15.5 52zM325 -160q24 0 31 5t7 26l1 576q-10 2 -38 2zM405 62q73 9 108.5 60.5t35.5 130.5 t-35.5 129t-108.5 59v-379z" gerber_lp="dcc"/>
<glyph unicode="q" horiz-adv-x="644" d="M26 248q0 69 24.5 120t66.5 78.5t91.5 40.5t106.5 13h209q44 0 59.5 -16t15.5 -52v-565q0 -36 -15.5 -52t-59.5 -16h-214q-40 0 -55.5 16t-15.5 52v133q-213 39 -213 248zM95 248q0 -77 35.5 -127t108.5 -59v368q-73 -9 -108.5 -57.5t-35.5 -124.5zM520 -160q24 0 31 5 t7 26v557q0 21 -7 26t-31 5v-619z" />
<glyph unicode="r" horiz-adv-x="542" d="M45 68v364q0 36 15.5 52t59.5 16h214q43 0 57 -16t14 -54v-36l108 105q11 10 20 10q10 0 17 -7l22 -23q7 -7 7 -16q0 -12 -13 -22l-161 -125v-247q0 -38 -15 -53.5t-65 -15.5h-205q-44 0 -59.5 16t-15.5 52zM325 41q24 0 31 5t7 26v356q0 21 -7 26t-31 5v-418z" gerber_lp="dc"/>
<glyph unicode="s" horiz-adv-x="609" d="M-2 31q0 2 2 10l5 27q2 9 13 9q28 0 44.5 3t34 21t22.5 52l34 235q19 129 240 129q59 0 118.5 -12t92.5 -28q8 -3 8 -10q0 -3 -2 -9l-6 -29q-1 -8 -5 -8q-1 0 -9.5 1.5t-14.5 1.5q-57 0 -65 -67l-27 -228q-8 -64 -71 -105t-178 -41q-111 0 -228 39q-8 3 -8 9zM300 28 q66 8 102 37.5t41 75.5l26 216q10 81 69 91q-51 0 -77 -25.5t-31 -65.5l-26 -216q-6 -40 -32 -71t-72 -42z" gerber_lp="dc"/>
<glyph unicode="t" horiz-adv-x="549" d="M0 351v39q0 10 10 10h51v111q0 21 14 26l270 99q37 14 52 14q9 0 16.5 -6.5t7.5 -19.5v-224h88q10 0 10 -10v-39q0 -11 -10 -11h-88v-197q0 -34 11.5 -48.5t35.5 -14.5q8 0 22 3.5t17 3.5q5 0 5 -6v-38q0 -14 -11 -17q-100 -43 -223 -43q-54 0 -87.5 5t-66 20.5t-48 50 t-15.5 88.5v193h-51q-10 0 -10 11zM341 130q0 -39 22 -54.5t49 -15.5q-33 26 -33 68v452q0 22 -12 22q-10 0 -26 -8v-464z" gerber_lp="dc"/>
<glyph unicode="u" horiz-adv-x="608" d="M45 157v275q0 36 15.5 52t59.5 16h214q25 0 41 -6.5t22 -20.5t7 -23t1 -26v-5v-300q0 -54 40 -54q22 0 43 14v398q0 23 20 23h31q24 0 24 -23v-454q0 -23 -24 -23h-31q-12 0 -16 7t-4 24q-108 -41 -239 -41q-107 0 -155.5 38t-48.5 129zM325 116q0 -34 22 -48.5t40 -14.5 q-24 25 -24 61v314q0 21 -7 26t-31 5v-343z" gerber_lp="dc"/>
<glyph unicode="v" horiz-adv-x="557" d="M0 476q0 12 9 18t20 6h238q24 0 34 -4.5t15 -16.5l76 -191l68 183q3 9 4.5 12t5 8.5t8 7t12.5 1.5h52q14 0 14 -8q0 -5 -5 -18l-187 -441q-15 -33 -40 -33h-77q-12 0 -21.5 6t-12 11l-7.5 15l-201 427q-5 10 -5 17zM242 459l111 -278l19 51l-85 212q-7 15 -22 15h-23z" gerber_lp="dc" />
<glyph unicode="w" horiz-adv-x="861" d="M5 477q0 23 26 23h193q24 0 35 -6.5t18 -23.5l80 -209l29 88l-42 111q-4 14 -4 18q0 22 26 22h193q25 0 36 -6t17 -24l70 -209l70 211q0 1 1 4q8 19 20 23q6 1 13 1h53q17 0 17 -12q0 -6 -3 -14l-178 -428q-18 -46 -49 -46h-78q-32 0 -49 45l-71 189l-78 -188 q-18 -46 -49 -46h-78q-31 0 -49 45l-165 415q-4 9 -4 17zM198 459l119 -311l18 55l-92 241q-5 15 -21 15h-24zM538 459l106 -314l18 54l-83 245q-5 15 -21 15h-20z" gerber_lp="dcc"/>
<glyph unicode="x" horiz-adv-x="636" d="M7 15q0 10 8 22l126 206l-125 217q-6 9 -6 18q0 22 29 22h282q36 0 49 -20l63 -107l50 87q1 2 5.5 10t6.5 10t6 7.5t7.5 7t9 3.5t12.5 2h55q18 0 18 -15q0 -8 -8 -22l-110 -179l139 -238q9 -18 9 -24q0 -22 -33 -22h-287q-33 0 -48 29l-73 126l-67 -115q-1 -2 -4 -7 t-4 -6.5t-3.5 -6t-4 -6l-4.5 -4.5t-5 -4.5t-5.5 -3t-7 -2t-7.5 -0.5h-57q-16 0 -16 15zM296 459l244 -418h22q18 0 7 20l-224 382q-9 16 -26 16h-23z" />
<glyph unicode="y" horiz-adv-x="561" d="M0 478q0 22 29 22h247q31 0 40 -21l76 -187l68 179q3 9 4.5 12t5 8.5t8 7t12.5 1.5h57q14 0 14 -8q0 -5 -5 -18l-276 -651q-1 -2 -2.5 -5.5t-2 -4.5t-2 -3.5t-2 -3.5t-2 -2.5t-3 -2t-3.5 -1.5t-4.5 -1h-5.5h-63q-15 0 -15 9q0 5 6 17l66 141l-242 493q-5 10 -5 19z M242 459l109 -272l19 49l-83 208q-7 15 -22 15h-23z" />
<glyph unicode="z" horiz-adv-x="562" d="M10 20q0 15 15 44l190 368q-133 -7 -166 -7q-17 0 -17 15v44q0 9 3.5 12.5t14.5 3.5h472q33 0 33 -20q0 -14 -9 -30l-194 -381q161 6 181 6q23 0 23 -16v-35q0 -24 -28 -24h-490q-28 0 -28 20zM262 65l42 2l187 367q5 7 5 14q0 11 -16 11h-17z" />
<glyph unicode="{" horiz-adv-x="466" d="M20 274v50q0 11 10 11q55 0 67.5 14.5t12.5 65.5v174q0 91 47 141t139 50h140q10 0 10 -10v-49q0 -11 -10 -11h-20q-60 0 -60 -63v-217q0 -52 -18.5 -81t-52.5 -50q33 -20 52 -49t19 -81v-217q0 -63 60 -63h20q10 0 10 -11v-49q0 -10 -10 -10h-140q-92 0 -139 50t-47 141 v174q0 51 -12.5 65.5t-67.5 14.5q-10 0 -10 10zM245 282q31 -31 31 -113v-217q0 -33 26 -57.5t73 -24.5q-28 3 -44.5 26.5t-16.5 55.5v217q0 37 -11 60.5t-22 31t-36 21.5zM245 317q25 13 36 21.5t22 32t11 59.5v217q0 32 16.5 55.5t44.5 26.5q-47 0 -73 -24.5t-26 -57.5 v-217q0 -82 -31 -113z" />
<glyph unicode="|" horiz-adv-x="250" d="M84 -227v954q0 15 6 19t17 4h38q21 0 21 -23v-954q0 -23 -20 -23h-38q-24 0 -24 23z" />
<glyph unicode="}" horiz-adv-x="466" d="M20 -122q0 11 10 11h20q60 0 60 63v217q0 52 19 81t52 49q-34 21 -52.5 50t-18.5 81v217q0 63 -60 63h-20q-10 0 -10 11v49q0 10 10 10h139q92 0 139.5 -50t47.5 -141v-174q0 -51 12.5 -65.5t67.5 -14.5q10 0 10 -11v-50q0 -10 -10 -10q-55 0 -67.5 -14.5t-12.5 -65.5 v-174q0 -91 -47.5 -141t-139.5 -50h-139q-10 0 -10 10v49zM210 -147q104 28 104 157v174q0 68 31 89q-43 -2 -56 -22t-13 -67v-174q0 -109 -66 -157zM210 746q66 -48 66 -157v-174q0 -47 13 -66.5t56 -22.5q-31 21 -31 89v174q0 129 -104 157z" />
<glyph unicode="~" d="M47 226q17 59 51.5 89t77.5 30q25 0 54 -17t52 -34t33 -17q31 0 48 54q4 12 15 6l65 -31q14 -6 9 -19q-18 -60 -52 -90t-76 -30q-25 0 -54 16.5t-52 33.5t-33 17q-29 0 -47 -51q-6 -14 -20 -7l-61 30q-13 5 -10 20z" />
<glyph unicode="&#xa1;" horiz-adv-x="445" d="M60 148q0 47 56 122.5t61 109.5q0 10 0.5 21.5t1.5 21.5t9.5 16t24.5 6h19q16 0 24.5 -6t9.5 -16t1.5 -21.5t0.5 -21.5q5 -34 61 -109.5t56 -122.5q0 -67 -47.5 -115t-114.5 -48t-115 47.5t-48 115.5zM110 599q0 46 33.5 79.5t80.5 33.5q46 0 79 -33t33 -80t-33 -80 t-79 -33q-47 0 -80.5 33.5t-33.5 79.5zM232 528q27 3 45 23t18 48t-18 48.5t-45 22.5q25 -30 25 -71t-25 -71zM233 366q3 -50 36.5 -112t33.5 -106q0 -79 -58 -127q44 12 71 46t27 81q0 35 -24.5 71.5t-52 74.5t-33.5 72z" />
<glyph unicode="&#xa2;" horiz-adv-x="503" d="M35 250q0 109 57 169.5t142 75.5v102q0 15 6 19t17 4h36q12 0 16 -5.5t4 -17.5v-98q85 -7 151 -55q9 -9 9 -11q0 -3 -3 -8l-16 -25q-3 -5 -7 -5l-17 7q-18 7 -38 7q-78 0 -78 -159q0 -158 78 -158q15 0 28.5 4t21.5 8.5t9 4.5q5 0 8 -5l16 -26q3 -4 3 -7q0 -5 -9 -11 q-71 -54 -156 -60v-101q0 -23 -20 -23h-35q-24 0 -24 23v106q-85 15 -142 75.5t-57 169.5zM233 250q0 -86 35 -131t82 -45q-32 8 -55 49.5t-23 126.5q0 155 78 177q-47 0 -82 -45t-35 -132z" />
<glyph unicode="&#xa3;" horiz-adv-x="610" d="M10 20v28q0 16 19 16l42 -1v160h-41q-10 0 -10 11v39q0 10 10 10h41v117q0 84 26 146t69.5 94t90 46.5t97.5 14.5q54 0 107.5 -12.5t85.5 -29.5q8 -5 8 -15v-38q0 -9 -11 -6q-21 6 -43 6q-87 0 -87 -123v-200h105q10 0 10 -10v-39q0 -11 -10 -11h-105v-160q130 11 166 11 q20 0 20 -16v-34q0 -8 -0.5 -12t-6 -8t-15.5 -4h-548q-12 0 -16 4t-4 16zM334 48l39 9v420q0 53 13.5 86.5t28 44.5t36.5 19q-43 1 -80 -36t-37 -114v-429z" />
<glyph unicode="&#xa4;" horiz-adv-x="476" d="M34 138q0 6 9 17l61 60q-24 38 -24 84q0 44 24 84l-61 61q-9 10 -9 16t9 17l19 19q8 7 15 7q9 0 16 -9l61 -61q42 25 84 25q45 0 84 -25l60 61q10 9 17 9t16 -9l19 -19q7 -8 7 -15q0 -8 -8 -16l-61 -61q24 -38 24 -84t-24 -84l61 -60q8 -10 8 -17t-6 -13l-19 -20 q-11 -9 -17 -9q-8 0 -17 9l-60 60q-40 -24 -84 -24q-46 0 -84 24l-61 -61q-10 -8 -16 -8q-7 0 -14 7l-19 19q-10 8 -10 16zM152 299q0 -36 25 -61t61 -25t61 25t25 61t-25 61t-61 25t-61 -25t-25 -61z" />
<glyph unicode="&#xa5;" horiz-adv-x="610" d="M9 667q0 16 10.5 25t23.5 9h247q37 0 49 -29l86 -236l78 225q1 2 2.5 7t2.5 7t2.5 6t3 5.5t3.5 4.5t3.5 4.5t4.5 3t6 2t7 0.5h47q15 0 15 -13q0 -9 -6 -24l-110 -280h89q10 0 10 -10v-39q0 -11 -10 -11h-90v-40h90q10 0 10 -10v-39q0 -11 -10 -11h-90v-157 q0 -36 -16 -51.5t-64 -15.5h-189q-44 0 -59.5 16t-15.5 52v156h-90q-10 0 -10 11v39q0 10 10 10h90v40h-90q-10 0 -10 11v39q0 10 10 10h84l-118 260q-6 14 -6 23zM260 660l143 -390v-229q25 0 31.5 5t6.5 26v201l-136 372q-5 15 -21 15h-24z" />
<glyph unicode="&#xa6;" horiz-adv-x="250" d="M84 106q0 15 6 19t17 4h38q21 0 21 -23v-333q0 -23 -20 -23h-38q-24 0 -24 23v333zM84 394v333q0 15 6 19t17 4h38q21 0 21 -23v-333q0 -23 -20 -23h-38q-24 0 -24 23z" />
<glyph unicode="&#xa7;" horiz-adv-x="445" d="M42 341q0 76 61 119q-42 51 -42 108q0 60 41.5 96.5t114.5 36.5q57 0 121 -25q14 -6 9 -17l-11 -31q-4 -11 -9 -11l-15 5q-14 5 -28 5q-56 0 -56 -46q0 -20 18 -38t44 -34.5t52 -36.5t44 -54t18 -76q0 -76 -64 -120q49 -51 49 -113q0 -59 -46.5 -100.5t-119.5 -41.5 q-84 0 -144 31q-10 3 -6 15l12 33q4 11 9 11l24 -9q24 -9 42 -9q26 0 44 11.5t18 36.5q0 20 -18.5 38.5t-45 36.5t-53 40.5t-45 58t-18.5 80.5zM89 368q0 -32 24.5 -61t59 -50.5t69 -42.5t59 -48.5t24.5 -58.5q0 -63 -54 -104q84 29 84 106q0 37 -24.5 68.5t-59 54t-69 44 t-59 48t-24.5 56.5t27 51q-31 -7 -44 -27t-13 -36zM153 386q0 -15 6 -27.5t20.5 -25t26 -20.5t35.5 -23t36 -23q12 10 12 36q0 12 -5 22t-17.5 21t-23.5 19t-34.5 24t-38.5 27q-17 -10 -17 -30zM164 574q0 -31 18 -56t44 -42.5t52 -35.5t44 -45t18 -62q0 -50 -16 -83 q46 39 46 92q0 37 -18 66t-44 48.5t-52 36.5t-44 37.5t-18 43.5q0 51 56 70q-46 -1 -66 -22.5t-20 -47.5z" />
<glyph unicode="&#xa8;" horiz-adv-x="400" d="M41 649q0 27 18.5 45.5t44.5 18.5q27 0 45.5 -18.5t18.5 -45.5q0 -26 -18.5 -45t-45.5 -19q-26 0 -44.5 19t-18.5 45zM232 649q0 27 19 45.5t45 18.5t45 -18.5t19 -45.5q0 -26 -19 -45t-45 -19t-45 19t-19 45z" />
<glyph unicode="&#xa9;" horiz-adv-x="842" d="M50 354q0 154 108.5 262.5t262.5 108.5t262.5 -108.5t108.5 -262.5t-108.5 -262.5t-262.5 -108.5t-262.5 108.5t-108.5 262.5zM120 354q0 -124 88 -212.5t213 -88.5t213 88.5t88 212.5t-88 212.5t-213 88.5t-213 -88.5t-88 -212.5zM217 350q0 73 32.5 121t78 66t101.5 18 q51 0 97 -14.5t72 -34.5q10 -7 6 -15l-12 -20q-5 -8 -14 -3q-25 15 -45 15q-36 0 -61 -31.5t-25 -101.5q0 -69 25 -100t61 -31q20 0 50 18q9 6 14 -2l12 -20q5 -8 -6 -16q-75 -53 -174 -53q-88 0 -150 49.5t-62 154.5zM371 350q0 -70 38 -108t85 -38q-35 4 -60.5 40.5 t-25.5 105.5q0 71 25.5 107.5t60.5 40.5q-47 0 -85 -38.5t-38 -109.5z" />
<glyph unicode="&#xaa;" horiz-adv-x="480" d="M25 458q0 59 41 90t104 36v21q0 43 -38 43q-24 0 -58 -21q-6 -4 -8 -4q-3 0 -6 5l-12 24q-2 2 -2 5q0 4 7 9q28 19 77 34t102 15q48 0 80 -5.5t64 -21.5t48 -50.5t16 -88.5v-163q0 -27 -11.5 -38.5t-44.5 -11.5h-196q-69 0 -116 28.5t-47 93.5zM82 458q0 -70 88 -70v145 q-88 0 -88 -75zM337 668q34 -34 34 -113v-184q14 0 20 1t10 6t4 16v160q0 92 -68 114z" />
<glyph unicode="&#xab;" horiz-adv-x="514" d="M29 254q0 4 10 16l173 208q15 15 20 15q12 0 12 -15v-107q0 -34 -15 -49l-64 -68l64 -68q15 -15 15 -49v-107q0 -15 -12 -15q-9 0 -20 15l-173 208q-10 12 -10 16zM250 254q0 5 9 16l174 208q15 15 20 15q11 0 11 -15v-107q0 -34 -14 -49l-65 -68l65 -68q14 -15 14 -49 v-107q0 -15 -11 -15q-9 0 -20 15l-174 208q-9 11 -9 16z" />
<glyph unicode="&#xac;" d="M63 287v84q0 10 11 10h343q10 0 10 -10v-224q0 -10 -11 -10h-83q-11 0 -11 10v129h-248q-11 0 -11 11z" />
<glyph unicode="&#xad;" horiz-adv-x="391" d="M49 175v117q0 10 10 10h273q10 0 10 -10v-117q0 -11 -10 -11h-273q-10 0 -10 11z" />
<glyph unicode="&#xae;" horiz-adv-x="622" d="M50 464q0 108 76.5 184.5t184.5 76.5t184.5 -76.5t76.5 -184.5t-76.5 -184.5t-184.5 -76.5t-184.5 76.5t-76.5 184.5zM112 464q0 -82 58 -140.5t141 -58.5t141 58.5t58 140.5t-58 140.5t-141 58.5t-141 -58.5t-58 -140.5zM215 363v214q0 14 6 20t22 6h76q47 0 79 -24 t32 -77q0 -50 -33 -76l40 -66q5 -9 -2 -15l-22 -10q-10 -5 -14 6l-31 70q-18 -7 -35 -8v-41q0 -25 -25 -25h-65q-16 0 -22 6t-6 20zM292 357q19 0 19 12v198h-19v-210zM333 439q30 0 45.5 18t15.5 45q0 28 -15 46.5t-46 18.5v-128z" />
<glyph unicode="&#xaf;" horiz-adv-x="400" d="M60 610v78q0 10 10 10h260q10 0 10 -10v-78q0 -11 -10 -11h-260q-10 0 -10 11z" />
<glyph unicode="&#xb0;" horiz-adv-x="288" d="M24 595q0 49 35 84.5t85 35.5q49 0 84 -35t35 -85q0 -49 -34.5 -84t-84.5 -35t-85 35t-35 84zM82 596q0 -26 18 -44t44 -18t44 18t18 44t-18 44t-44 18t-44 -18t-18 -44z" />
<glyph unicode="&#xb1;" d="M63 11v83q0 10 11 10h352q11 0 11 -10v-83q0 -11 -11 -11h-352q-11 0 -11 11zM63 263v83q0 10 11 10h124v100q0 10 10 10h84q10 0 10 -10v-100h124q11 0 11 -10v-83q0 -11 -11 -11h-124v-100q0 -10 -10 -10h-84q-10 0 -10 10v100h-124q-11 0 -11 11z" />
<glyph unicode="&#xb2;" horiz-adv-x="381" d="M7 651q0 2 3 5q27 25 72 40t95 15q88 0 127 -44t39 -106q0 -123 -160 -224q126 7 168 7q20 0 20 -18v-33q0 -16 -17 -16h-322q-13 0 -13 11q0 6 9 20q32 50 53 112t21 110q0 95 -43 95q-8 0 -18 -6t-11 -6q-2 0 -5 3l-17 31v1q-1 2 -1 3zM172 370q132 90 132 191 q0 92 -88 116q51 -39 51 -116q0 -114 -95 -191z" />
<glyph unicode="&#xb3;" horiz-adv-x="341" d="M10 297l12 36q1 3 5 3l19 -4q19 -4 32 -4q64 0 64 75q0 72 -37 72q-15 0 -22 -5q-8 0 -9 1l-15 23q-6 4 0 8l82 81h-93q-22 0 -22 18v86q0 14 21 14h247q19 0 22.5 -13.5t-8.5 -24.5l-129 -131q66 -1 109 -34t43 -93q0 -59 -57.5 -97t-138.5 -38q-67 0 -121 19q-5 3 -4 8 zM181 303q111 26 111 102q0 80 -94 98q57 -35 57 -98q0 -30 -19.5 -58t-54.5 -44z" />
<glyph unicode="&#xb4;" horiz-adv-x="400" d="M104 625q0 3 5 8l173 131q3 3 7 3q2 0 7 -5l45 -63q3 -5 3 -8q0 -4 -4 -7l-185 -115q-5 -3 -7 -3q-4 0 -8 5l-33 48q-3 3 -3 6z" />
<glyph unicode="&#xb5;" horiz-adv-x="645" d="M63 -191v637q0 51 49 51h152q50 0 50 -48v-310q0 -55 53 -55q55 0 55 55v335q0 7 1 11t7 8t17 4h111q24 0 24 -23v-451q0 -23 -24 -23h-89q-18 0 -23.5 10.5t-5.5 47.5l-4 1q-8 -40 -20 -59.5t-36 -19.5q-23 0 -38 17.5t-23 61.5l-5 -2v-238q0 -28 -11 -40t-39 -12h-153 q-19 0 -33.5 10.5t-14.5 31.5zM235 -192q24 0 31 5t7 26v589q0 21 -7 26t-31 5v-651zM497 41q24 0 31 5t7 26v356q0 21 -7 26t-31 5v-418z" />
<glyph unicode="&#xb6;" horiz-adv-x="573" d="M45 493q0 46 16 82.5t42 59.5t61.5 38t72 21.5t75.5 6.5h31q20 0 20 -23v-785q0 -23 -20 -23h-31q-24 0 -24 23v365q-51 4 -91 16t-76 37t-56 71t-20 111zM114 486q0 -72 43 -117t131 -45v309q-89 0 -131.5 -39t-42.5 -108zM398 -107v785q0 23 24 23h31q20 0 20 -23v-785 q0 -23 -20 -23h-31q-24 0 -24 23z" />
<glyph unicode="&#xb7;" horiz-adv-x="326" d="M50 272q0 46 33 79.5t80 33.5t80 -33.5t33 -79.5t-33 -79.5t-80 -33.5t-80 33.5t-33 79.5zM171 201q27 3 45 23t18 48t-18 48t-45 23q26 -31 26 -71t-26 -71z" />
<glyph unicode="&#xb8;" horiz-adv-x="400" d="M68 -207q0 8 7 8q3 0 31 -7.5t62 -7.5q77 0 77 51q0 55 -94 55q-11 0 -11 9q0 2 21 104h66l-12 -57q118 -18 118 -113q0 -64 -49 -94t-121 -30q-31 0 -63 8t-32 27v47z" />
<glyph unicode="&#xb9;" horiz-adv-x="355" d="M0 657v6q0 10 14 12l233 29q14 2 22 2q14 0 22 -3.5t11 -12.5t3.5 -13.5t0.5 -18.5v-341q0 -13 -1 -19t-12.5 -13.5t-35.5 -7.5h-145q-27 0 -36.5 9.5t-9.5 30.5v308l-44 -14l-2 -1h-5q-11 0 -12 9zM231 315q24 0 30 5t6 26v297q0 23 -17 23q-1 0 -19 -2v-349z" />
<glyph unicode="&#xba;" d="M24 515q0 54 19.5 94t52.5 62.5t71.5 33t82.5 10.5q43 0 79 -8t71 -28t55.5 -61t20.5 -100q0 -204 -226 -204q-44 0 -82 10.5t-71.5 32.5t-53 62.5t-19.5 95.5zM231 515q0 -69 28.5 -98t71.5 -29q-30 5 -47.5 32.5t-17.5 94.5q0 108 65 127q-38 0 -69 -29.5t-31 -97.5z M301 515q0 -65 15.5 -86.5t43.5 -21.5q59 0 59 111q0 104 -59 104t-59 -107z" />
<glyph unicode="&#xbb;" horiz-adv-x="514" d="M49 30v107q0 34 14 49l65 68l-65 68q-14 15 -14 49v107q0 15 12 15q5 0 20 -15l173 -208q10 -12 10 -16t-10 -16l-173 -208q-11 -15 -20 -15q-12 0 -12 15zM270 30v107q0 34 14 49l65 68l-65 68q-14 15 -14 49v107q0 15 12 15q4 0 19 -15l174 -208q9 -11 9 -16t-9 -16 l-174 -208q-11 -15 -19 -15q-12 0 -12 15z" />
<glyph unicode="&#xbc;" horiz-adv-x="804" d="M0 657v6q0 10 14 12l214 29q12 2 22 2q8 0 14 -2t10 -3t6.5 -6.5t3.5 -7t1.5 -10t0.5 -9v-10.5v-292v-11t-2 -10t-7 -10.5t-14.5 -5.5t-24.5 -3h-126q-27 0 -36.5 9t-9.5 31v259l-44 -14l-2 -1h-5q-11 0 -12 9zM128 27q0 6 6 15l422 655q9 13 17 13q4 0 16 -6l22 -16 q11 -7 11 -16q0 -5 -5 -13l-423 -656q-10 -12 -18 -12q-6 0 -11 4l-23 15q-14 8 -14 17zM212 364q24 0 29.5 5t5.5 26v248q0 23 -17 23l-18 -2v-300zM399 124q0 3 2 15l60 199q7 22 18 31t40 9h93q42 0 42 -27q0 -12 -3 -21l-46 -175h50v74q0 13 13 13h50q15 0 15 -13v-74 h45q7 0 7 -7v-44q0 -6 -7 -6h-45v-84q0 -14 -16 -14h-49q-13 0 -13 14v84h-211q-45 0 -45 26zM529 155h35l43 163q1 3 1 8q0 14 -17 14h-13z" />
<glyph unicode="&#xbd;" horiz-adv-x="835" d="M0 657v6q0 10 14 12l214 29q12 2 22 2q8 0 14 -2t10 -3t6.5 -6.5t3.5 -7t1.5 -10t0.5 -9v-10.5v-292v-11t-2 -10t-7 -10.5t-14.5 -5.5t-24.5 -3h-126q-27 0 -36.5 9t-9.5 31v259l-44 -14l-2 -1h-5q-11 0 -12 9zM128 27q0 6 6 15l422 655q9 13 17 13q4 0 16 -6l22 -16 q11 -7 11 -16q0 -5 -5 -13l-423 -656q-10 -12 -18 -12q-6 0 -11 4l-23 15q-14 8 -14 17zM212 364q24 0 29.5 5t5.5 26v248q0 23 -17 23l-18 -2v-300zM452 337q0 2 3 5q59 49 167 49q88 0 127 -40t39 -96q0 -105 -160 -196q144 6 168 6q20 0 20 -16v-34q0 -15 -18 -15h-321 q-13 0 -13 10q0 5 9 18q32 44 53 100.5t21 100.5q0 84 -44 84q-8 0 -17.5 -5t-10.5 -5q-2 0 -5 3l-17 27q0 1 -0.5 2t-0.5 2zM645 114q58 38 81 69t23 72q0 81 -84 102q47 -36 47 -102q0 -79 -67 -141z" />
<glyph unicode="&#xbe;" horiz-adv-x="809" d="M15 349l12 36q1 3 5 3l18 -4q19 -3 32 -3q31 0 47 13.5t16 46.5q0 63 -37 63q-12 0 -22 -4q-7 0 -8 1l-11 20q-2 4 0 7l71 66h-86q-21 0 -21 15v79q0 13 21 13h242q18 0 22 -11.5t-8 -21.5l-122 -114q64 -1 104 -29.5t40 -81.5q0 -51 -56.5 -84.5t-135.5 -33.5 q-63 0 -119 17q-5 2 -4 7zM133 27q0 6 6 15l422 655q9 13 17 13q4 0 16 -6l22 -16q11 -7 11 -16q0 -5 -5 -13l-423 -656q-10 -12 -18 -12q-6 0 -11 4l-23 15q-14 8 -14 17zM197 359q94 21 94 86q0 70 -84 80q47 -32 47 -82q0 -23 -16 -46t-41 -38zM404 124q0 3 2 15l60 199 q7 22 18 31t40 9h93q42 0 42 -27q0 -12 -3 -21l-46 -175h50v74q0 13 13 13h50q15 0 15 -13v-74h45q7 0 7 -7v-44q0 -6 -7 -6h-45v-84q0 -14 -16 -14h-49q-13 0 -13 14v84h-211q-45 0 -45 26zM534 155h35l43 163q1 3 1 8q0 14 -17 14h-13z" />
<glyph unicode="&#xbf;" horiz-adv-x="526" d="M40 165q0 22 3 40.5t11.5 41.5t27 41t46.5 35t72.5 28.5t102.5 16.5v60q0 23 20 23h44q21 0 21 -23v-116q0 -2 -5 -7q-46 -22 -66.5 -63t-20.5 -79q0 -47 24.5 -73t69.5 -26q31 0 67 18q1 0 3.5 1.5t4.5 1.5q3 0 7 -5l19 -30q2 -3 2 -6q0 -2 -6 -8q-76 -51 -207 -51 q-123 0 -181.5 53.5t-58.5 126.5zM214 163q0 -44 22 -69.5t62 -28.5q-44 33 -44 98q0 37 21.5 80.5t65.5 70.5q-46 -15 -76 -43.5t-40.5 -55t-10.5 -52.5zM232 604q0 47 33 80t80 33t80 -33t33 -80q0 -46 -33 -79t-80 -33t-80 33t-33 79zM354 533q26 3 44.5 23.5t18.5 47.5 q0 28 -18.5 48.5t-44.5 23.5q25 -33 25 -72q0 -38 -25 -71z" />
<glyph unicode="&#xc0;" horiz-adv-x="610" d="M5 12q0 8 6 25l204 618q8 24 17.5 34.5t25.5 11.5h73q17 0 26 -9t19 -36l225 -599q4 -12 4 -23q0 -16 -10 -25t-23 -9h-277q-39 0 -48 29l-6 17h-137l-3 -15q-3 -12 -5 -17t-8.5 -9.5t-16.5 -4.5h-50q-16 0 -16 12zM119 106h106l-55 191zM150 871q0 4 4 8l44 63q5 5 8 5 q2 0 7 -3l173 -131q4 -6 4 -8q0 -3 -3 -6l-33 -48q-2 -5 -8 -5q-3 0 -6 3l-185 115q-5 3 -5 7zM291 660l230 -619h24q18 0 11 17l-220 587q-4 10 -9 12.5t-19 2.5h-17z" />
<glyph unicode="&#xc1;" horiz-adv-x="610" d="M5 12q0 8 6 25l204 618q8 24 17.5 34.5t25.5 11.5h73q17 0 26 -9t19 -36l225 -599q4 -12 4 -23q0 -16 -10 -25t-23 -9h-277q-39 0 -48 29l-6 17h-137l-3 -15q-3 -12 -5 -17t-8.5 -9.5t-16.5 -4.5h-50q-16 0 -16 12zM119 106h106l-55 191zM198 805q0 3 5 8l173 131 q3 3 7 3q2 0 7 -5l45 -63q3 -5 3 -8q0 -4 -4 -7l-185 -115q-5 -3 -7 -3q-4 0 -8 5l-33 48q-3 3 -3 6zM291 660l230 -619h24q18 0 11 17l-220 587q-4 10 -9 12.5t-19 2.5h-17z" />
<glyph unicode="&#xc2;" horiz-adv-x="610" d="M5 12q0 8 6 25l204 618q8 24 17.5 34.5t25.5 11.5h73q17 0 26 -9t19 -36l225 -599q4 -12 4 -23q0 -16 -10 -25t-23 -9h-277q-39 0 -48 29l-6 17h-137l-3 -15q-3 -12 -5 -17t-8.5 -9.5t-16.5 -4.5h-50q-16 0 -16 12zM119 106h106l-55 191zM135 801q0 3 4 7l148 126 q6 3 7 3t7 -3l148 -126q5 -5 5 -7q0 -4 -3 -7l-33 -43q-4 -5 -8 -5q-3 0 -6 3l-110 77l-109 -77q-4 -3 -7 -3q-4 0 -8 5l-33 43q-2 4 -2 7zM291 660l230 -619h24q18 0 11 17l-220 587q-4 10 -9 12.5t-19 2.5h-17z" />
<glyph unicode="&#xc3;" horiz-adv-x="610" d="M5 12q0 8 6 25l204 618q8 24 17.5 34.5t25.5 11.5h73q17 0 26 -9t19 -36l225 -599q4 -12 4 -23q0 -16 -10 -25t-23 -9h-277q-39 0 -48 29l-6 17h-137l-3 -15q-3 -12 -5 -17t-8.5 -9.5t-16.5 -4.5h-50q-16 0 -16 12zM119 106h106l-55 191zM133 782q6 51 32.5 86t65.5 35 q27 0 67 -23.5t49 -23.5q14 0 22.5 7t11 15t4.5 21q0 5 12 5h52q9 0 7 -15q-8 -53 -34 -88.5t-64 -35.5q-27 0 -67.5 23.5t-48.5 23.5q-33 0 -37 -41q-1 -6 -16 -6h-49q-11 0 -7 17zM291 660l230 -619h24q18 0 11 17l-220 587q-4 10 -9 12.5t-19 2.5h-17z" />
<glyph unicode="&#xc4;" horiz-adv-x="610" d="M5 12q0 8 6 25l204 618q8 24 17.5 34.5t25.5 11.5h73q17 0 26 -9t19 -36l225 -599q4 -12 4 -23q0 -16 -10 -25t-23 -9h-277q-39 0 -48 29l-6 17h-137l-3 -15q-3 -12 -5 -17t-8.5 -9.5t-16.5 -4.5h-50q-16 0 -16 12zM119 106h106l-55 191zM135 829q0 27 18.5 45.5 t44.5 18.5q27 0 45.5 -18.5t18.5 -45.5q0 -26 -18.5 -45t-45.5 -19q-26 0 -44.5 19t-18.5 45zM291 660l230 -619h24q18 0 11 17l-220 587q-4 10 -9 12.5t-19 2.5h-17zM326 829q0 27 19 45.5t45 18.5t45 -18.5t19 -45.5q0 -26 -19 -45t-45 -19t-45 19t-19 45z" />
<glyph unicode="&#xc5;" horiz-adv-x="610" d="M5 12q0 8 6 25l204 618q11 29 19 36q-30 16 -47.5 45.5t-17.5 64.5q0 52 36.5 89t88.5 37t88.5 -37t36.5 -89q0 -73 -63 -109q8 -6 20 -36l225 -599q4 -12 4 -23q0 -16 -10 -25t-23 -9h-277q-39 0 -48 29l-6 17h-137l-3 -15q-3 -12 -5 -17t-8.5 -9.5t-16.5 -4.5h-50 q-16 0 -16 12zM119 106h106l-55 191zM241 802q0 -23 15.5 -38.5t37.5 -15.5q23 0 38 15.5t15 38.5q0 22 -15.5 37.5t-37.5 15.5t-37.5 -15.5t-15.5 -37.5zM291 660l230 -619h24q18 0 11 17l-220 587q-4 10 -9 12.5t-19 2.5h-17z" />
<glyph unicode="&#xc6;" horiz-adv-x="831" d="M-35 9q0 5 7 22l272 624q10 24 23 35t34 11h466q26 0 26 -24v-35q0 -16 -17 -16q-14 0 -58 6.5t-80 11.5l-37 6v-124h182q10 0 10 -10v-49q0 -11 -10 -11h-182v-396l41 6q42 6 90 12.5t62 6.5q17 0 17 -16v-45q0 -24 -27 -24h-473q-44 0 -59 16t-15 52v23h-151l-21 -51 q-12 -30 -22 -36q-8 -4 -19 -4h-36q-23 0 -23 9zM108 151h129v307zM521 49l39 5v603l-39 5v-613z" />
<glyph unicode="&#xc7;" horiz-adv-x="626" d="M30 353q0 105 29.5 181t79 115.5t103 57t113.5 17.5q74 0 136.5 -20.5t97.5 -47.5q6 -6 6 -8l-2 -4l-21 -34q-3 -4 -7 -4l-21 10q-20 11 -39 11q-106 0 -106 -274q0 -275 106 -275q19 0 39 10l21 11q4 0 7 -4l21 -33q2 -4 2 -5q0 -2 -6 -8q-33 -25 -90.5 -45t-125.5 -23 l-7 -33q118 -18 118 -113q0 -64 -49 -94t-121 -30q-31 0 -63 8t-32 27v47q0 8 8 8q3 0 31 -7.5t61 -7.5q77 0 77 51q0 55 -94 55q-10 0 -10 9q0 11 16 83q-55 6 -101.5 28t-88 63t-65 112t-23.5 166zM316 353q0 -70 8.5 -122.5t21 -83t32.5 -51.5t36.5 -29.5t39.5 -14.5 q-14 9 -19.5 13t-23.5 27t-27 51t-18 83.5t-9 126.5t9 126t18 83.5t27 51t23.5 26.5t19.5 13q-23 -6 -39.5 -14.5t-36.5 -29.5t-32.5 -51.5t-21 -83t-8.5 -121.5z" />
<glyph unicode="&#xc8;" horiz-adv-x="639" d="M45 68v548q0 52 22 68.5t67 16.5h441q26 0 26 -24v-35q0 -16 -18 -16q-12 0 -55.5 6t-81.5 12l-37 6v-124h182q10 0 10 -10v-49q0 -11 -10 -11h-182v-396q169 25 190 25q20 0 20 -16v-45q0 -24 -25 -24h-475q-44 0 -59 16t-15 52zM180 871q0 4 4 8l44 63q5 5 8 5 q2 0 7 -3l173 -131q4 -6 4 -8q0 -3 -3 -6l-33 -48q-2 -5 -8 -5q-3 0 -6 3l-185 115q-5 3 -5 7zM330 49l38 5v603l-38 5v-613z" />
<glyph unicode="&#xc9;" horiz-adv-x="639" d="M45 68v548q0 52 22 68.5t67 16.5h441q26 0 26 -24v-35q0 -16 -18 -16q-12 0 -55.5 6t-81.5 12l-37 6v-124h182q10 0 10 -10v-49q0 -11 -10 -11h-182v-396q169 25 190 25q20 0 20 -16v-45q0 -24 -25 -24h-475q-44 0 -59 16t-15 52zM228 805q0 3 5 8l173 131q3 3 7 3 q2 0 7 -5l45 -63q3 -5 3 -8q0 -4 -4 -7l-185 -115q-5 -3 -7 -3q-4 0 -8 5l-33 48q-3 3 -3 6zM330 49l38 5v603l-38 5v-613z" />
<glyph unicode="&#xca;" horiz-adv-x="639" d="M45 68v548q0 52 22 68.5t67 16.5h441q26 0 26 -24v-35q0 -16 -18 -16q-12 0 -55.5 6t-81.5 12l-37 6v-124h182q10 0 10 -10v-49q0 -11 -10 -11h-182v-396q169 25 190 25q20 0 20 -16v-45q0 -24 -25 -24h-475q-44 0 -59 16t-15 52zM165 801q0 3 4 7l148 126q6 3 7 3t7 -3 l148 -126q5 -5 5 -7q0 -4 -3 -7l-33 -43q-4 -5 -8 -5q-3 0 -6 3l-110 77l-109 -77q-5 -3 -7 -3q-4 0 -8 5l-33 43q-2 4 -2 7zM330 49l38 5v603l-38 5v-613z" />
<glyph unicode="&#xcb;" horiz-adv-x="639" d="M45 68v548q0 52 22 68.5t67 16.5h441q26 0 26 -24v-35q0 -16 -18 -16q-12 0 -55.5 6t-81.5 12l-37 6v-124h182q10 0 10 -10v-49q0 -11 -10 -11h-182v-396q169 25 190 25q20 0 20 -16v-45q0 -24 -25 -24h-475q-44 0 -59 16t-15 52zM165 829q0 27 18.5 45.5t44.5 18.5 q27 0 45.5 -18.5t18.5 -45.5q0 -26 -18.5 -45t-45.5 -19q-26 0 -44.5 19t-18.5 45zM330 49l38 5v603l-38 5v-613zM356 829q0 27 19 45.5t45 18.5t45 -18.5t19 -45.5q0 -26 -19 -45t-45 -19t-45 19t-19 45z" />
<glyph unicode="&#xcc;" horiz-adv-x="455" d="M45 68v565q0 36 15.5 52t59.5 16h218q25 0 41 -6.5t22 -20.5t7 -23t1 -26v-5v-541q0 -14 -2 -25t-9 -25t-24.5 -21.5t-44.5 -7.5h-209q-44 0 -59.5 16t-15.5 52zM85 871q0 4 4 8l44 63q5 5 8 5t7 -3l173 -131q4 -6 4 -8q0 -3 -3 -6l-33 -48q-3 -5 -8 -5q-3 0 -6 3 l-185 115q-5 3 -5 7zM330 41q24 0 31 5t7 26v557q0 21 -7 26t-31 5v-619z" />
<glyph unicode="&#xcd;" horiz-adv-x="455" d="M45 68v565q0 36 15.5 52t59.5 16h218q25 0 41 -6.5t22 -20.5t7 -23t1 -26v-5v-541q0 -14 -2 -25t-9 -25t-24.5 -21.5t-44.5 -7.5h-209q-44 0 -59.5 16t-15.5 52zM133 805q0 3 5 8l173 131q3 3 7 3q2 0 7 -5l45 -63q3 -5 3 -8q0 -4 -4 -7l-185 -115q-5 -3 -7 -3q-4 0 -8 5 l-33 48q-3 3 -3 6zM330 41q24 0 31 5t7 26v557q0 21 -7 26t-31 5v-619z" />
<glyph unicode="&#xce;" horiz-adv-x="455" d="M45 68v565q0 36 15.5 52t59.5 16h218q25 0 41 -6.5t22 -20.5t7 -23t1 -26v-5v-541q0 -14 -2 -25t-9 -25t-24.5 -21.5t-44.5 -7.5h-209q-44 0 -59.5 16t-15.5 52zM70 801q0 3 4 7l148 126q6 3 7 3t7 -3l148 -126q5 -5 5 -7q0 -4 -3 -7l-33 -43q-4 -5 -8 -5q-3 0 -6 3 l-110 77l-109 -77q-4 -3 -7 -3q-4 0 -8 5l-33 43q-2 4 -2 7zM330 41q24 0 31 5t7 26v557q0 21 -7 26t-31 5v-619z" />
<glyph unicode="&#xcf;" horiz-adv-x="455" d="M45 68v565q0 36 15.5 52t59.5 16h218q25 0 41 -6.5t22 -20.5t7 -23t1 -26v-5v-541q0 -14 -2 -25t-9 -25t-24.5 -21.5t-44.5 -7.5h-209q-44 0 -59.5 16t-15.5 52zM70 829q0 27 18.5 45.5t44.5 18.5q27 0 45.5 -18.5t18.5 -45.5q0 -26 -18.5 -45t-45.5 -19q-26 0 -44.5 19 t-18.5 45zM261 829q0 27 19 45.5t45 18.5t45 -18.5t19 -45.5q0 -26 -19 -45t-45 -19t-45 19t-19 45zM330 41q24 0 31 5t7 26v557q0 21 -7 26t-31 5v-619z" />
<glyph unicode="&#xd0;" horiz-adv-x="695" d="M0 267v49q0 10 10 10h50v307q0 36 15.5 52t59.5 16h235q48 0 87.5 -7t79.5 -28.5t67 -56.5t44 -95t17 -141q0 -94 -18 -163.5t-46 -109t-69.5 -63t-80 -30.5t-86.5 -7h-230q-44 0 -59.5 16t-15.5 52v188h-50q-10 0 -10 11zM330 67h38v567h-38v-567zM424 68q86 1 129 83 t43 212q0 267 -172 270v-307h77q11 0 11 -10v-49q0 -11 -11 -11h-77v-188z" />
<glyph unicode="&#xd1;" horiz-adv-x="674" d="M45 28v637q0 36 40 36h165q28 0 56 -28l238 -236q-17 206 -20 241q-2 23 22 23h59q24 0 24 -28v-637q0 -36 -34 -36h-170q-24 0 -45 21l-250 261q17 -224 20 -259q2 -23 -20 -23h-61q-24 0 -24 28zM177 803q6 51 32.5 86t65.5 35q27 0 67 -23.5t49 -23.5q14 0 22.5 7 t11 15t4.5 21q0 5 12 5h52q9 0 7 -15q-8 -53 -34 -88.5t-64 -35.5q-27 0 -67.5 23.5t-48.5 23.5q-33 0 -37 -41q-1 -6 -16 -6h-49q-11 0 -7 17zM208 660l336 -334v52l-272 269q-12 13 -29 13h-35z" />
<glyph unicode="&#xd2;" horiz-adv-x="710" d="M30 353q0 107 28 183t76.5 115t102.5 56t118 17t118 -17t102.5 -56t76.5 -115t28 -183t-28 -183t-76.5 -115.5t-102.5 -56.5t-118 -17t-118 17t-102.5 56.5t-76.5 115.5t-28 183zM244 892q0 4 4 8l44 63q5 5 8 5q2 0 7 -3l173 -131q4 -6 4 -8q0 -3 -3 -6l-33 -48 q-2 -5 -8 -5q-3 0 -6 3l-185 115q-5 3 -5 7zM317 353q0 -121 43 -180.5t108 -62.5q-45 9 -78 69.5t-33 173.5t33 173.5t78 69.5q-65 -3 -108 -62.5t-43 -180.5zM399 353q0 -113 30.5 -163.5t75.5 -50.5t75.5 50.5t30.5 163.5t-30.5 163.5t-75.5 50.5t-75.5 -50.5 t-30.5 -163.5z" />
<glyph unicode="&#xd3;" horiz-adv-x="710" d="M30 353q0 107 28 183t76.5 115t102.5 56t118 17t118 -17t102.5 -56t76.5 -115t28 -183t-28 -183t-76.5 -115.5t-102.5 -56.5t-118 -17t-118 17t-102.5 56.5t-76.5 115.5t-28 183zM246 826q0 3 5 8l173 131q3 3 7 3q2 0 7 -5l45 -63q3 -4 3 -8t-4 -7l-185 -115 q-5 -3 -7 -3q-4 0 -8 5l-33 48q-3 3 -3 6zM317 353q0 -121 43 -180.5t108 -62.5q-45 9 -78 69.5t-33 173.5t33 173.5t78 69.5q-65 -3 -108 -62.5t-43 -180.5zM399 353q0 -113 30.5 -163.5t75.5 -50.5t75.5 50.5t30.5 163.5t-30.5 163.5t-75.5 50.5t-75.5 -50.5t-30.5 -163.5 z" />
<glyph unicode="&#xd4;" horiz-adv-x="710" d="M30 353q0 107 28 183t76.5 115t102.5 56t118 17t118 -17t102.5 -56t76.5 -115t28 -183t-28 -183t-76.5 -115.5t-102.5 -56.5t-118 -17t-118 17t-102.5 56.5t-76.5 115.5t-28 183zM196 822q0 3 4 7l148 126q6 3 7 3t7 -3l148 -126q5 -5 5 -7q0 -4 -3 -7l-33 -43 q-4 -5 -8 -5q-3 0 -6 3l-110 77l-109 -77q-4 -3 -7 -3q-4 0 -8 5l-33 43q-2 4 -2 7zM317 353q0 -121 43 -180.5t108 -62.5q-45 9 -78 69.5t-33 173.5t33 173.5t78 69.5q-65 -3 -108 -62.5t-43 -180.5zM399 353q0 -113 30.5 -163.5t75.5 -50.5t75.5 50.5t30.5 163.5 t-30.5 163.5t-75.5 50.5t-75.5 -50.5t-30.5 -163.5z" />
<glyph unicode="&#xd5;" horiz-adv-x="710" d="M30 353q0 107 28 183t76.5 115t102.5 56t118 17t118 -17t102.5 -56t76.5 -115t28 -183t-28 -183t-76.5 -115.5t-102.5 -56.5t-118 -17t-118 17t-102.5 56.5t-76.5 115.5t-28 183zM195 803q6 51 32.5 86t65.5 35q27 0 67 -23.5t49 -23.5q14 0 22.5 7t11 15t4.5 21 q0 5 12 5h52q9 0 7 -15q-8 -53 -34 -88.5t-64 -35.5q-27 0 -67.5 23.5t-48.5 23.5q-33 0 -37 -41q-1 -6 -16 -6h-49q-11 0 -7 17zM317 353q0 -121 43 -180.5t108 -62.5q-45 9 -78 69.5t-33 173.5t33 173.5t78 69.5q-65 -3 -108 -62.5t-43 -180.5zM399 353 q0 -113 30.5 -163.5t75.5 -50.5t75.5 50.5t30.5 163.5t-30.5 163.5t-75.5 50.5t-75.5 -50.5t-30.5 -163.5z" />
<glyph unicode="&#xd6;" horiz-adv-x="710" d="M30 353q0 107 28 183t76.5 115t102.5 56t118 17t118 -17t102.5 -56t76.5 -115t28 -183t-28 -183t-76.5 -115.5t-102.5 -56.5t-118 -17t-118 17t-102.5 56.5t-76.5 115.5t-28 183zM196 850q0 27 18.5 45.5t44.5 18.5q27 0 45.5 -18.5t18.5 -45.5q0 -26 -18.5 -45 t-45.5 -19q-26 0 -44.5 19t-18.5 45zM317 353q0 -121 43 -180.5t108 -62.5q-45 9 -78 69.5t-33 173.5t33 173.5t78 69.5q-65 -3 -108 -62.5t-43 -180.5zM387 850q0 27 19 45.5t45 18.5t45 -18.5t19 -45.5q0 -26 -19 -45t-45 -19t-45 19t-19 45zM399 353q0 -113 30.5 -163.5 t75.5 -50.5t75.5 50.5t30.5 163.5t-30.5 163.5t-75.5 50.5t-75.5 -50.5t-30.5 -163.5z" />
<glyph unicode="&#xd7;" d="M71 146q0 4 4 8l101 101l-101 102q-4 3 -4 7t4 8l59 59q3 3 7 3t7 -3l102 -102l102 102q4 4 7 4t7 -4l59 -59q4 -4 4 -8t-4 -7l-101 -102l101 -101q4 -4 4 -8q0 -3 -4 -7l-59 -59q-4 -4 -7 -4t-7 4l-102 102l-102 -102q-4 -4 -7 -4t-7 4l-59 59q-4 4 -4 7z" />
<glyph unicode="&#xd8;" horiz-adv-x="720" d="M30 353q0 107 28 183t76.5 115t102.5 56t118 17q176 0 258 -115l70 118q5 6 10 6q3 0 8 -3l34 -22q6 -3 6 -9q0 -4 -3 -10l-88 -148q30 -79 30 -188q0 -107 -28 -183t-76.5 -115.5t-102.5 -56.5t-118 -17q-25 0 -37 1l-82 -138q-4 -7 -10 -7q-5 0 -8 3l-33 23q-6 3 -6 10 q0 3 3 9l66 112q-218 59 -218 359zM317 353q0 -121 43 -180.5t108 -62.5q-45 9 -78 69.5t-33 173.5t33 173.5t78 69.5q-65 -3 -108 -62.5t-43 -180.5zM399 353q0 -57 7 -93l163 274q-26 33 -64 33q-45 0 -75.5 -50.5t-30.5 -163.5zM435 180q27 -41 70 -41q45 0 75.5 50.5 t30.5 163.5q0 58 -10 105z" />
<glyph unicode="&#xd9;" horiz-adv-x="632" d="M45 252v381q0 36 15.5 52t59.5 16h218q25 0 41 -6.5t22 -20.5t7 -23t1 -26v-5v-547q43 8 63 40.5t20 94.5v470q0 23 20 23h51q24 0 24 -23v-426q0 -271 -275 -271q-56 0 -99 10.5t-83.5 38t-62.5 83.5t-22 139zM189 871q0 4 4 8l44 63q5 5 8 5t7 -3l173 -131q4 -6 4 -8 q0 -3 -3 -6l-33 -48q-3 -5 -8 -5q-3 0 -6 3l-185 115q-5 3 -5 7zM330 67h38v562q0 21 -7 26t-31 5v-593z" />
<glyph unicode="&#xda;" horiz-adv-x="632" d="M45 252v381q0 36 15.5 52t59.5 16h218q25 0 41 -6.5t22 -20.5t7 -23t1 -26v-5v-547q43 8 63 40.5t20 94.5v470q0 23 20 23h51q24 0 24 -23v-426q0 -271 -275 -271q-56 0 -99 10.5t-83.5 38t-62.5 83.5t-22 139zM237 805q0 3 5 8l173 131q3 3 7 3q2 0 7 -5l45 -63 q3 -5 3 -8q0 -4 -4 -7l-185 -115q-4 -3 -7 -3q-4 0 -8 5l-33 48q-3 3 -3 6zM330 67h38v562q0 21 -7 26t-31 5v-593z" />
<glyph unicode="&#xdb;" horiz-adv-x="632" d="M45 252v381q0 36 15.5 52t59.5 16h218q25 0 41 -6.5t22 -20.5t7 -23t1 -26v-5v-547q43 8 63 40.5t20 94.5v470q0 23 20 23h51q24 0 24 -23v-426q0 -271 -275 -271q-56 0 -99 10.5t-83.5 38t-62.5 83.5t-22 139zM174 801q0 3 4 7l148 126q6 3 7 3t7 -3l148 -126q5 -5 5 -7 q0 -4 -3 -7l-33 -43q-4 -5 -8 -5q-3 0 -6 3l-110 77l-109 -77q-5 -3 -7 -3q-4 0 -8 5l-33 43q-2 4 -2 7zM330 67h38v562q0 21 -7 26t-31 5v-593z" />
<glyph unicode="&#xdc;" horiz-adv-x="632" d="M45 252v381q0 36 15.5 52t59.5 16h218q25 0 41 -6.5t22 -20.5t7 -23t1 -26v-5v-547q43 8 63 40.5t20 94.5v470q0 23 20 23h51q24 0 24 -23v-426q0 -271 -275 -271q-56 0 -99 10.5t-83.5 38t-62.5 83.5t-22 139zM174 829q0 27 18.5 45.5t44.5 18.5q27 0 45.5 -18.5 t18.5 -45.5q0 -26 -18.5 -45t-45.5 -19q-26 0 -44.5 19t-18.5 45zM330 67h38v562q0 21 -7 26t-31 5v-593zM365 829q0 27 19 45.5t45 18.5t45 -18.5t19 -45.5q0 -26 -19 -45t-45 -19t-45 19t-19 45z" />
<glyph unicode="&#xdd;" horiz-adv-x="600" d="M0 667q0 16 10 25t23 9h267q40 0 49 -29l86 -236l78 225q1 2 2.5 7t2.5 7t2.5 6t3 5.5t3.5 4.5t3.5 4.5t4.5 3t6 2t7 0.5h45q17 0 17 -13q0 -9 -6 -24l-111 -282v-314q0 -35 -15.5 -51.5t-54.5 -16.5h-231q-36 0 -49.5 16t-13.5 52v303l-124 273q-5 11 -5 23zM253 805 q0 3 5 8l173 131q3 3 7 3q2 0 7 -5l45 -63q3 -5 3 -8q0 -4 -4 -7l-185 -115q-5 -3 -7 -3q-4 0 -8 5l-33 48q-3 3 -3 6zM271 660l143 -390v-229q24 0 31 5t7 26v201l-137 372q-4 15 -21 15h-23z" />
<glyph unicode="&#xde;" horiz-adv-x="632" d="M45 68v565q0 36 15.5 52t59.5 16h218q43 0 57 -15.5t14 -51.5v-69q203 -29 203 -202q0 -201 -203 -231v-67q0 -35 -13.5 -50t-52.5 -15h-233q-37 0 -51 16t-14 52zM330 41q24 0 31 5t7 26v557q0 21 -7 26t-31 5v-619zM409 197q68 10 101 53t33 106q0 128 -134 144v-303z " />
<glyph unicode="&#xdf;" horiz-adv-x="689" d="M51 68v517q0 65 31 112t82.5 70t103 33t107.5 10q51 0 92.5 -6.5t84.5 -26t71.5 -51.5t47 -86.5t18.5 -128.5q0 -61 -11.5 -108.5t-33 -78t-41.5 -48.5t-47 -35q75 -33 75 -104q0 -133 -187 -137q-10 0 -10 10v47q0 8 9 8q57 1 88 16t31 52q0 24 -8 39t-26 21.5t-35 8 t-48 1.5q-11 0 -11 9v42q0 5 2 7t3 2h4q85 4 131 72.5t46 175.5q0 95 -37.5 158.5t-102.5 63.5q-69 0 -69 -66v-601q0 -33 -16 -49.5t-55 -16.5h-214q-44 0 -59.5 16t-15.5 52zM332 41q24 0 31 5t7 26v592q0 81 73 99q-50 1 -80.5 -23.5t-30.5 -75.5v-623z" />
<glyph unicode="&#xe0;" horiz-adv-x="630" d="M31 163q0 79 55 119.5t139 48.5v33q0 24 -9 37t-18.5 16t-23.5 3q-31 0 -77 -27q-7 -5 -11 -5t-8 6l-16 26q-3 4 -3 8q0 6 9 11q37 26 102 45.5t137 19.5q50 0 86 -3.5t74.5 -17t62.5 -36.5t39.5 -64.5t15.5 -98.5v-218q0 -35 -15.5 -50.5t-59.5 -15.5h-261 q-58 0 -104.5 13.5t-80 52t-33.5 97.5zM100 163q0 -101 125 -101v207q-66 0 -95.5 -30t-29.5 -76zM182 691q0 4 4 8l44 63q5 5 8 5q2 0 7 -3l173 -131q4 -6 4 -8q0 -3 -3 -6l-33 -48q-2 -5 -8 -5q-3 0 -6 3l-185 115q-5 3 -5 7zM460 445q45 -45 45 -149v-255q25 0 31.5 5 t6.5 26v222q0 124 -83 151z" />
<glyph unicode="&#xe1;" horiz-adv-x="630" d="M31 163q0 79 55 119.5t139 48.5v33q0 24 -9 37t-18.5 16t-23.5 3q-31 0 -77 -27q-7 -5 -11 -5t-8 6l-16 26q-3 4 -3 8q0 6 9 11q37 26 102 45.5t137 19.5q50 0 86 -3.5t74.5 -17t62.5 -36.5t39.5 -64.5t15.5 -98.5v-218q0 -35 -15.5 -50.5t-59.5 -15.5h-261 q-58 0 -104.5 13.5t-80 52t-33.5 97.5zM100 163q0 -101 125 -101v207q-66 0 -95.5 -30t-29.5 -76zM230 625q0 3 5 8l173 131q3 3 7 3q2 0 7 -5l45 -63q3 -5 3 -8q0 -4 -4 -7l-185 -115q-5 -3 -7 -3q-4 0 -8 5l-33 48q-3 3 -3 6zM460 445q45 -45 45 -149v-255q25 0 31.5 5 t6.5 26v222q0 124 -83 151z" />
<glyph unicode="&#xe2;" horiz-adv-x="630" d="M31 163q0 79 55 119.5t139 48.5v33q0 24 -9 37t-18.5 16t-23.5 3q-31 0 -77 -27q-7 -5 -11 -5t-8 6l-16 26q-3 4 -3 8q0 6 9 11q37 26 102 45.5t137 19.5q50 0 86 -3.5t74.5 -17t62.5 -36.5t39.5 -64.5t15.5 -98.5v-218q0 -35 -15.5 -50.5t-59.5 -15.5h-261 q-58 0 -104.5 13.5t-80 52t-33.5 97.5zM100 163q0 -101 125 -101v207q-66 0 -95.5 -30t-29.5 -76zM167 621q0 3 4 7l148 126q6 3 7 3t7 -3l148 -126q5 -5 5 -7q0 -4 -3 -7l-33 -43q-4 -5 -8 -5q-3 0 -6 3l-110 77l-109 -77q-5 -3 -7 -3q-4 0 -8 5l-33 43q-2 4 -2 7zM460 445 q45 -45 45 -149v-255q25 0 31.5 5t6.5 26v222q0 124 -83 151z" />
<glyph unicode="&#xe3;" horiz-adv-x="630" d="M31 163q0 79 55 119.5t139 48.5v33q0 24 -9 37t-18.5 16t-23.5 3q-31 0 -77 -27q-7 -5 -11 -5t-8 6l-16 26q-3 4 -3 8q0 6 9 11q37 26 102 45.5t137 19.5q50 0 86 -3.5t74.5 -17t62.5 -36.5t39.5 -64.5t15.5 -98.5v-218q0 -35 -15.5 -50.5t-59.5 -15.5h-261 q-58 0 -104.5 13.5t-80 52t-33.5 97.5zM100 163q0 -101 125 -101v207q-66 0 -95.5 -30t-29.5 -76zM165 602q6 51 32.5 86t65.5 35q27 0 67 -23.5t49 -23.5q14 0 22.5 7t11 15t4.5 21q0 5 12 5h52q9 0 7 -15q-8 -53 -34 -88.5t-64 -35.5q-27 0 -67.5 23.5t-48.5 23.5 q-33 0 -37 -41q-1 -6 -16 -6h-49q-11 0 -7 17zM460 445q45 -45 45 -149v-255q25 0 31.5 5t6.5 26v222q0 124 -83 151z" />
<glyph unicode="&#xe4;" horiz-adv-x="630" d="M31 163q0 79 55 119.5t139 48.5v33q0 24 -9 37t-18.5 16t-23.5 3q-31 0 -77 -27q-7 -5 -11 -5t-8 6l-16 26q-3 4 -3 8q0 6 9 11q37 26 102 45.5t137 19.5q50 0 86 -3.5t74.5 -17t62.5 -36.5t39.5 -64.5t15.5 -98.5v-218q0 -35 -15.5 -50.5t-59.5 -15.5h-261 q-58 0 -104.5 13.5t-80 52t-33.5 97.5zM100 163q0 -101 125 -101v207q-66 0 -95.5 -30t-29.5 -76zM167 649q0 27 18.5 45.5t44.5 18.5q27 0 45.5 -18.5t18.5 -45.5q0 -26 -18.5 -45t-45.5 -19q-26 0 -44.5 19t-18.5 45zM358 649q0 27 19 45.5t45 18.5t45 -18.5t19 -45.5 q0 -26 -19 -45t-45 -19t-45 19t-19 45zM460 445q45 -45 45 -149v-255q25 0 31.5 5t6.5 26v222q0 124 -83 151z" />
<glyph unicode="&#xe5;" horiz-adv-x="630" d="M31 163q0 79 55 119.5t139 48.5v33q0 24 -9 37t-18.5 16t-23.5 3q-31 0 -77 -27q-7 -5 -11 -5t-8 6l-16 26q-3 4 -3 8q0 6 9 11q37 26 102 45.5t137 19.5q50 0 86 -3.5t74.5 -17t62.5 -36.5t39.5 -64.5t15.5 -98.5v-218q0 -35 -15.5 -50.5t-59.5 -15.5h-261 q-58 0 -104.5 13.5t-80 52t-33.5 97.5zM100 163q0 -101 125 -101v207q-66 0 -95.5 -30t-29.5 -76zM200 686q0 52 37 89t89 37t88 -37t36 -89t-36 -88.5t-88 -36.5t-89 36.5t-37 88.5zM272 687q0 -23 15.5 -38.5t38.5 -15.5q22 0 37 15.5t15 38.5q0 22 -15 37.5t-37 15.5 t-38 -15.5t-16 -37.5zM460 445q45 -45 45 -149v-255q25 0 31.5 5t6.5 26v222q0 124 -83 151z" />
<glyph unicode="&#xe6;" horiz-adv-x="826" d="M26 167q0 83 55 123.5t140 47.5v32q0 35 -12 46.5t-35 11.5q-34 0 -81 -29q-7 -5 -10 -5t-8 6l-17 27q-2 3 -2 8q0 7 9 11q38 28 103.5 49.5t137.5 21.5q76 0 127 -36q58 36 135 36q34 0 65 -7.5t62 -26.5t54 -49t37 -78.5t14 -111.5v-38h-221q8 -67 34.5 -96t59.5 -29 q17 0 32 6.5t24.5 12.5t11.5 6q4 0 8 -5l17 -29q3 -4 3 -7t-6 -9q-36 -30 -103.5 -51.5t-146.5 -21.5q-90 0 -163 37q-64 -27 -131 -27q-87 0 -140 45.5t-53 128.5zM95 167q0 -48 30.5 -79.5t94.5 -31.5q39 0 66 11q-65 67 -65 185v25q-65 -5 -95.5 -35t-30.5 -75zM495 247 q0 -97 44.5 -145.5t101.5 -48.5q-41 9 -73.5 53.5t-32.5 140.5q0 90 30.5 134.5t75.5 51.5q-64 -2 -105 -47.5t-41 -138.5zM577 266h154q0 134 -76 134q-73 0 -78 -134z" />
<glyph unicode="&#xe7;" horiz-adv-x="589" d="M26 247q0 72 26 125.5t70 83.5t95.5 44t109.5 14q75 0 141.5 -20.5t101.5 -47.5q6 -4 6 -9q0 -3 -2 -6l-17 -27q-6 -7 -11 -7l-20 10q-19 10 -39 10q-40 0 -73 -40.5t-33 -129.5t33 -129t73 -40q20 0 41 10l21 11q5 0 11 -7l17 -26q2 -3 2 -7q0 -5 -6 -9 q-91 -64 -223 -70l-7 -32q118 -18 118 -113q0 -64 -49 -94t-121 -30q-31 0 -63 8t-32 27v47q0 8 7 8q3 0 31 -7.5t62 -7.5q77 0 77 51q0 55 -94 55q-11 0 -11 9q0 2 2.5 14t6.5 32.5t7 34.5q-71 7 -126.5 33.5t-93.5 86t-38 145.5zM299 247q0 -95 43 -141t104 -47 q-40 8 -73.5 53.5t-33.5 134.5t33.5 135t73.5 55q-61 -2 -104 -48.5t-43 -141.5z" />
<glyph unicode="&#xe8;" horiz-adv-x="640" d="M26 250q0 72 26 125.5t70 83.5t95.5 44t109.5 14q132 0 209.5 -62.5t77.5 -202.5v-27q0 -19 -19 -19h-202q8 -67 34.5 -96t59.5 -29q15 0 30 5.5t24.5 11.5t11.5 6q6 0 10 -6l18 -27q2 -3 2 -7t-6 -8q-99 -73 -250 -73q-59 0 -110 14t-95 43.5t-70 83t-26 126.5zM175 691 q0 4 4 8l44 63q5 5 8 5t7 -3l173 -131q4 -6 4 -8q0 -3 -3 -6l-33 -48q-3 -5 -8 -5q-3 0 -6 3l-185 115q-5 3 -5 7zM309 247q0 -97 44.5 -145.5t101.5 -47.5q-41 8 -73.5 52.5t-32.5 140.5q0 91 30.5 135.5t75.5 51.5q-64 -2 -105 -48t-41 -139zM391 266h154q0 134 -76 134 q-73 0 -78 -134z" />
<glyph unicode="&#xe9;" horiz-adv-x="640" d="M26 250q0 72 26 125.5t70 83.5t95.5 44t109.5 14q132 0 209.5 -62.5t77.5 -202.5v-27q0 -19 -19 -19h-202q8 -67 34.5 -96t59.5 -29q15 0 30 5.5t24.5 11.5t11.5 6q6 0 10 -6l18 -27q2 -3 2 -7t-6 -8q-99 -73 -250 -73q-59 0 -110 14t-95 43.5t-70 83t-26 126.5zM223 625 q0 3 5 8l173 131q3 3 7 3q2 0 7 -5l45 -63q3 -5 3 -8q0 -4 -4 -7l-185 -115q-5 -3 -7 -3q-4 0 -8 5l-33 48q-3 3 -3 6zM309 247q0 -97 44.5 -145.5t101.5 -47.5q-41 8 -73.5 52.5t-32.5 140.5q0 91 30.5 135.5t75.5 51.5q-64 -2 -105 -48t-41 -139zM391 266h154 q0 134 -76 134q-73 0 -78 -134z" />
<glyph unicode="&#xea;" horiz-adv-x="640" d="M26 250q0 72 26 125.5t70 83.5t95.5 44t109.5 14q132 0 209.5 -62.5t77.5 -202.5v-27q0 -19 -19 -19h-202q8 -67 34.5 -96t59.5 -29q15 0 30 5.5t24.5 11.5t11.5 6q6 0 10 -6l18 -27q2 -3 2 -7t-6 -8q-99 -73 -250 -73q-59 0 -110 14t-95 43.5t-70 83t-26 126.5zM160 621 q0 3 4 7l148 126q6 3 7 3t7 -3l148 -126q5 -5 5 -7q0 -4 -3 -7l-33 -43q-4 -5 -8 -5q-3 0 -6 3l-110 77l-109 -77q-4 -3 -7 -3q-4 0 -8 5l-33 43q-2 4 -2 7zM309 247q0 -97 44.5 -145.5t101.5 -47.5q-41 8 -73.5 52.5t-32.5 140.5q0 91 30.5 135.5t75.5 51.5 q-64 -2 -105 -48t-41 -139zM391 266h154q0 134 -76 134q-73 0 -78 -134z" />
<glyph unicode="&#xeb;" horiz-adv-x="640" d="M26 250q0 72 26 125.5t70 83.5t95.5 44t109.5 14q132 0 209.5 -62.5t77.5 -202.5v-27q0 -19 -19 -19h-202q8 -67 34.5 -96t59.5 -29q15 0 30 5.5t24.5 11.5t11.5 6q6 0 10 -6l18 -27q2 -3 2 -7t-6 -8q-99 -73 -250 -73q-59 0 -110 14t-95 43.5t-70 83t-26 126.5zM160 649 q0 27 18.5 45.5t44.5 18.5q27 0 45.5 -18.5t18.5 -45.5q0 -26 -18.5 -45t-45.5 -19q-26 0 -44.5 19t-18.5 45zM309 247q0 -97 44.5 -145.5t101.5 -47.5q-41 8 -73.5 52.5t-32.5 140.5q0 91 30.5 135.5t75.5 51.5q-64 -2 -105 -48t-41 -139zM351 649q0 27 19 45.5t45 18.5 t45 -18.5t19 -45.5q0 -26 -19 -45t-45 -19t-45 19t-19 45zM391 266h154q0 134 -76 134q-73 0 -78 -134z" />
<glyph unicode="&#xec;" horiz-adv-x="450" d="M45 68v364q0 36 15.5 52t59.5 16h214q43 0 57 -15t14 -53v-365q0 -37 -14 -52t-57 -15h-214q-44 0 -59.5 16t-15.5 52zM84 691q0 4 4 8l44 63q5 5 8 5q2 0 7 -3l173 -131q4 -6 4 -8q0 -3 -3 -6l-33 -48q-2 -5 -8 -5q-3 0 -6 3l-185 115q-5 3 -5 7zM325 41q24 0 31 5t7 26 v356q0 21 -7 26t-31 5v-418z" />
<glyph unicode="&#xed;" horiz-adv-x="450" d="M45 68v364q0 36 15.5 52t59.5 16h214q43 0 57 -15t14 -53v-365q0 -37 -14 -52t-57 -15h-214q-44 0 -59.5 16t-15.5 52zM132 625q0 3 5 8l173 131q3 3 7 3q2 0 7 -5l45 -63q3 -5 3 -8q0 -4 -4 -7l-185 -115q-5 -3 -7 -3q-4 0 -8 5l-33 48q-3 3 -3 6zM325 41q24 0 31 5 t7 26v356q0 21 -7 26t-31 5v-418z" />
<glyph unicode="&#xee;" horiz-adv-x="450" d="M45 68v364q0 36 15.5 52t59.5 16h214q43 0 57 -15t14 -53v-365q0 -37 -14 -52t-57 -15h-214q-44 0 -59.5 16t-15.5 52zM69 621q0 3 4 7l148 126q6 3 7 3t7 -3l148 -126q5 -5 5 -7q0 -4 -3 -7l-33 -43q-4 -5 -8 -5q-3 0 -6 3l-110 77l-109 -77q-5 -3 -7 -3q-4 0 -8 5 l-33 43q-2 4 -2 7zM325 41q24 0 31 5t7 26v356q0 21 -7 26t-31 5v-418z" />
<glyph unicode="&#xef;" horiz-adv-x="450" d="M45 68v364q0 36 15.5 52t59.5 16h214q43 0 57 -15t14 -53v-365q0 -37 -14 -52t-57 -15h-214q-44 0 -59.5 16t-15.5 52zM69 649q0 27 18.5 45.5t44.5 18.5q27 0 45.5 -18.5t18.5 -45.5q0 -26 -18.5 -45t-45.5 -19q-26 0 -44.5 19t-18.5 45zM260 649q0 27 19 45.5t45 18.5 t45 -18.5t19 -45.5q0 -26 -19 -45t-45 -19t-45 19t-19 45zM325 41q24 0 31 5t7 26v356q0 21 -7 26t-31 5v-418z" />
<glyph unicode="&#xf0;" horiz-adv-x="654" d="M26 241q0 70 26 122t70 81t95.5 42.5t109.5 13.5q73 0 129 -17q-41 62 -96 112l-64 -52q-8 -4 -10 -4q-8 0 -13 7l-24 32q-3 3 -3 7q0 7 6 13l53 42q-30 22 -69 46q-7 2 -7 8q0 5 3 9l32 47q5 8 10 8t9 -2q52 -26 95 -56l64 51q7 5 11 5t9 -5l28 -33q4 -6 4 -10 q0 -5 -5 -8l-55 -45q89 -79 141.5 -184t52.5 -226q0 -63 -18.5 -111t-47.5 -76t-70.5 -45.5t-80.5 -23.5t-84 -6q-58 0 -109.5 13.5t-95.5 42t-70 80.5t-26 122zM313 241q0 -91 37 -128t90 -37q-40 7 -63 41.5t-23 123.5q0 144 86 166q-19 0 -39 -7.5t-41 -24.5t-34 -51.5 t-13 -82.5zM395 241q0 -85 21.5 -113t60.5 -28q82 0 82 145q0 138 -82 138t-82 -142z" />
<glyph unicode="&#xf1;" horiz-adv-x="608" d="M45 68v364q0 36 15.5 52t59.5 16h200q49 0 60 -20q39 30 84 30q47 0 73 -32.5t26 -94.5v-360q0 -23 -24 -23h-31q-20 0 -20 23v365q0 57 -42 57q-22 0 -41 -19v-358q0 -36 -15.5 -52t-59.5 -16h-210q-44 0 -59.5 16t-15.5 52zM143 602q6 51 32.5 86t65.5 35 q27 0 67 -23.5t49 -23.5q14 0 22.5 7t11 15t4.5 21q0 5 12 5h52q9 0 7 -15q-8 -53 -34 -88.5t-64 -35.5q-27 0 -67.5 23.5t-48.5 23.5q-33 0 -37 -41q-1 -6 -16 -6h-49q-11 0 -7 17zM325 41q24 0 31 5t7 26v356q0 17 -9 24t-29 7v-418z" />
<glyph unicode="&#xf2;" horiz-adv-x="654" d="M26 250q0 72 26 125.5t70 83.5t95.5 44t109.5 14q45 0 84 -6t80 -23.5t70 -45.5t48 -76.5t19 -111.5q0 -65 -18.5 -115t-47.5 -79t-70.5 -47t-80.5 -24t-84 -6q-59 0 -110 14t-95 43.5t-70 83t-26 126.5zM216 691q0 4 4 8l44 63q5 5 8 5q2 0 7 -3l173 -131q4 -6 4 -8 q0 -3 -3 -6l-33 -48q-2 -5 -8 -5q-3 0 -6 3l-185 115q-5 3 -5 7zM313 250q0 -92 37.5 -130.5t89.5 -38.5q-39 7 -62.5 43t-23.5 126q0 147 86 169q-45 0 -86 -39.5t-41 -129.5zM395 250q0 -90 21.5 -120t60.5 -30q82 0 82 154q0 146 -82 146t-82 -150z" />
<glyph unicode="&#xf3;" horiz-adv-x="654" d="M26 250q0 72 26 125.5t70 83.5t95.5 44t109.5 14q45 0 84 -6t80 -23.5t70 -45.5t48 -76.5t19 -111.5q0 -65 -18.5 -115t-47.5 -79t-70.5 -47t-80.5 -24t-84 -6q-59 0 -110 14t-95 43.5t-70 83t-26 126.5zM217 625q0 3 5 8l173 131q3 3 7 3q2 0 7 -5l45 -63q3 -5 3 -8 q0 -4 -4 -7l-185 -115q-5 -3 -7 -3q-4 0 -8 5l-33 48q-3 3 -3 6zM313 250q0 -92 37.5 -130.5t89.5 -38.5q-39 7 -62.5 43t-23.5 126q0 147 86 169q-45 0 -86 -39.5t-41 -129.5zM395 250q0 -90 21.5 -120t60.5 -30q82 0 82 154q0 146 -82 146t-82 -150z" />
<glyph unicode="&#xf4;" horiz-adv-x="654" d="M26 250q0 72 26 125.5t70 83.5t95.5 44t109.5 14q45 0 84 -6t80 -23.5t70 -45.5t48 -76.5t19 -111.5q0 -65 -18.5 -115t-47.5 -79t-70.5 -47t-80.5 -24t-84 -6q-59 0 -110 14t-95 43.5t-70 83t-26 126.5zM167 621q0 3 4 7l148 126q6 3 7 3t7 -3l148 -126q5 -5 5 -7 q0 -4 -3 -7l-33 -43q-4 -5 -8 -5q-3 0 -6 3l-110 77l-109 -77q-5 -3 -7 -3q-4 0 -8 5l-33 43q-2 4 -2 7zM313 250q0 -92 37.5 -130.5t89.5 -38.5q-39 7 -62.5 43t-23.5 126q0 147 86 169q-45 0 -86 -39.5t-41 -129.5zM395 250q0 -90 21.5 -120t60.5 -30q82 0 82 154 q0 146 -82 146t-82 -150z" />
<glyph unicode="&#xf5;" horiz-adv-x="654" d="M26 250q0 72 26 125.5t70 83.5t95.5 44t109.5 14q45 0 84 -6t80 -23.5t70 -45.5t48 -76.5t19 -111.5q0 -65 -18.5 -115t-47.5 -79t-70.5 -47t-80.5 -24t-84 -6q-59 0 -110 14t-95 43.5t-70 83t-26 126.5zM167 602q6 51 32.5 86t65.5 35q27 0 67 -23.5t49 -23.5 q14 0 22.5 7t11 15t4.5 21q0 5 12 5h52q9 0 7 -15q-8 -53 -34 -88.5t-64 -35.5q-27 0 -67.5 23.5t-48.5 23.5q-33 0 -37 -41q-1 -6 -16 -6h-49q-11 0 -7 17zM313 250q0 -92 37.5 -130.5t89.5 -38.5q-39 7 -62.5 43t-23.5 126q0 147 86 169q-45 0 -86 -39.5t-41 -129.5z M395 250q0 -90 21.5 -120t60.5 -30q82 0 82 154q0 146 -82 146t-82 -150z" />
<glyph unicode="&#xf6;" horiz-adv-x="654" d="M26 250q0 72 26 125.5t70 83.5t95.5 44t109.5 14q45 0 84 -6t80 -23.5t70 -45.5t48 -76.5t19 -111.5q0 -65 -18.5 -115t-47.5 -79t-70.5 -47t-80.5 -24t-84 -6q-59 0 -110 14t-95 43.5t-70 83t-26 126.5zM167 649q0 27 18.5 45.5t44.5 18.5q27 0 45.5 -18.5t18.5 -45.5 q0 -26 -18.5 -45t-45.5 -19q-26 0 -44.5 19t-18.5 45zM313 250q0 -92 37.5 -130.5t89.5 -38.5q-39 7 -62.5 43t-23.5 126q0 147 86 169q-45 0 -86 -39.5t-41 -129.5zM358 649q0 27 19 45.5t45 18.5t45 -18.5t19 -45.5q0 -26 -19 -45t-45 -19t-45 19t-19 45zM395 250 q0 -90 21.5 -120t60.5 -30q82 0 82 154q0 146 -82 146t-82 -150z" />
<glyph unicode="&#xf7;" d="M63 214v83q0 11 11 11h352q11 0 11 -11v-83q0 -11 -11 -11h-352q-11 0 -11 11zM189 107q0 26 18 44t43 18q26 0 44 -18.5t18 -43.5t-18 -43t-44 -18t-43.5 18t-17.5 43zM189 402q0 26 17.5 44t43.5 18t44 -18t18 -44q0 -25 -18 -42.5t-44 -17.5q-25 0 -43 17.5t-18 42.5z " />
<glyph unicode="&#xf8;" horiz-adv-x="654" d="M26 250q0 72 26 125.5t70 83.5t95.5 44t109.5 14q149 0 227 -69l67 113q3 6 9 6q4 0 8 -3l35 -22q6 -3 6 -9q0 -4 -3 -10l-78 -131q30 -57 30 -138q0 -258 -274 -271l-83 -139q-2 -7 -10 -7q-3 0 -8 3l-33 23q-6 4 -6 10q0 3 3 9l62 103q-110 12 -181.5 76t-71.5 189z M313 250q0 -92 37.5 -130.5t89.5 -38.5q-39 7 -62.5 43t-23.5 126q0 147 86 169q-45 0 -86 -39.5t-41 -129.5zM395 250q0 -39 4 -63l119 200q-19 13 -41 13q-82 0 -82 -150zM432 113q17 -13 45 -13q82 0 82 154q0 34 -5 64z" />
<glyph unicode="&#xf9;" horiz-adv-x="608" d="M45 157v275q0 36 15.5 52t59.5 16h214q25 0 41 -6.5t22 -20.5t7 -23t1 -26v-5v-300q0 -54 40 -54q22 0 43 14v398q0 23 20 23h31q24 0 24 -23v-454q0 -23 -24 -23h-31q-12 0 -16 7t-4 24q-108 -41 -239 -41q-107 0 -155.5 38t-48.5 129zM184 691q0 4 4 8l44 63q5 5 8 5 q2 0 7 -3l173 -131q4 -6 4 -8q0 -3 -3 -6l-33 -48q-2 -5 -8 -5q-3 0 -6 3l-185 115q-5 3 -5 7zM325 116q0 -34 22 -48.5t40 -14.5q-24 25 -24 61v314q0 21 -7 26t-31 5v-343z" />
<glyph unicode="&#xfa;" horiz-adv-x="608" d="M45 157v275q0 36 15.5 52t59.5 16h214q25 0 41 -6.5t22 -20.5t7 -23t1 -26v-5v-300q0 -54 40 -54q22 0 43 14v398q0 23 20 23h31q24 0 24 -23v-454q0 -23 -24 -23h-31q-12 0 -16 7t-4 24q-108 -41 -239 -41q-107 0 -155.5 38t-48.5 129zM232 625q0 3 5 8l173 131q3 3 7 3 q2 0 7 -5l45 -63q3 -5 3 -8q0 -4 -4 -7l-185 -115q-5 -3 -7 -3q-4 0 -8 5l-33 48q-3 3 -3 6zM325 116q0 -34 22 -48.5t40 -14.5q-24 25 -24 61v314q0 21 -7 26t-31 5v-343z" />
<glyph unicode="&#xfb;" horiz-adv-x="608" d="M45 157v275q0 36 15.5 52t59.5 16h214q25 0 41 -6.5t22 -20.5t7 -23t1 -26v-5v-300q0 -54 40 -54q22 0 43 14v398q0 23 20 23h31q24 0 24 -23v-454q0 -23 -24 -23h-31q-12 0 -16 7t-4 24q-108 -41 -239 -41q-107 0 -155.5 38t-48.5 129zM169 621q0 3 4 7l148 126q6 3 7 3 t7 -3l148 -126q5 -5 5 -7q0 -4 -3 -7l-33 -43q-4 -5 -8 -5q-3 0 -6 3l-110 77l-109 -77q-5 -3 -7 -3q-4 0 -8 5l-33 43q-2 4 -2 7zM325 116q0 -34 22 -48.5t40 -14.5q-24 25 -24 61v314q0 21 -7 26t-31 5v-343z" />
<glyph unicode="&#xfc;" horiz-adv-x="608" d="M45 157v275q0 36 15.5 52t59.5 16h214q25 0 41 -6.5t22 -20.5t7 -23t1 -26v-5v-300q0 -54 40 -54q22 0 43 14v398q0 23 20 23h31q24 0 24 -23v-454q0 -23 -24 -23h-31q-12 0 -16 7t-4 24q-108 -41 -239 -41q-107 0 -155.5 38t-48.5 129zM169 649q0 27 18.5 45.5 t44.5 18.5q27 0 45.5 -18.5t18.5 -45.5q0 -26 -18.5 -45t-45.5 -19q-26 0 -44.5 19t-18.5 45zM325 116q0 -34 22 -48.5t40 -14.5q-24 25 -24 61v314q0 21 -7 26t-31 5v-343zM360 649q0 27 19 45.5t45 18.5t45 -18.5t19 -45.5q0 -26 -19 -45t-45 -19t-45 19t-19 45z" />
<glyph unicode="&#xfd;" horiz-adv-x="561" d="M0 478q0 22 29 22h247q31 0 40 -21l76 -187l68 179q3 9 4.5 12t5 8.5t8 7t12.5 1.5h57q14 0 14 -8q0 -5 -5 -18l-276 -651q-1 -2 -2.5 -5.5t-2 -4.5t-2 -3.5t-2 -3.5t-2 -2.5t-3 -2t-3.5 -1.5t-4.5 -1h-5.5h-63q-15 0 -15 9q0 5 6 17l66 141l-242 493q-5 10 -5 19z M221 625q0 3 5 8l173 131q3 3 7 3q2 0 7 -5l45 -63q3 -5 3 -8q0 -4 -4 -7l-185 -115q-4 -3 -7 -3q-4 0 -8 5l-33 48q-3 3 -3 6zM242 459l109 -272l19 49l-83 208q-7 15 -22 15h-23z" />
<glyph unicode="&#xfe;" horiz-adv-x="644" d="M45 -133v865q0 36 15.5 52t59.5 16h215q38 0 54 -17.5t16 -53.5v-225q96 -17 154.5 -77t58.5 -174q0 -115 -59.5 -176.5t-153.5 -76.5v-133q0 -37 -14.5 -52.5t-56.5 -15.5h-214q-44 0 -59.5 16t-15.5 52zM325 -160q24 0 31 5t7 26v857q0 21 -7 26t-31 5v-919zM405 62 q73 9 108.5 60.5t35.5 130.5t-35.5 129t-108.5 59v-379z" />
<glyph unicode="&#xff;" horiz-adv-x="561" d="M0 478q0 22 29 22h247q31 0 40 -21l76 -187l68 179q3 9 4.5 12t5 8.5t8 7t12.5 1.5h57q14 0 14 -8q0 -5 -5 -18l-276 -651q-1 -2 -2.5 -5.5t-2 -4.5t-2 -3.5t-2 -3.5t-2 -2.5t-3 -2t-3.5 -1.5t-4.5 -1h-5.5h-63q-15 0 -15 9q0 5 6 17l66 141l-242 493q-5 10 -5 19z M158 649q0 27 18.5 45.5t44.5 18.5q27 0 45.5 -18.5t18.5 -45.5q0 -26 -18.5 -45t-45.5 -19q-26 0 -44.5 19t-18.5 45zM242 459l109 -272l19 49l-83 208q-7 15 -22 15h-23zM349 649q0 27 19 45.5t45 18.5t45 -18.5t19 -45.5q0 -26 -19 -45t-45 -19t-45 19t-19 45z" />
<glyph unicode="&#x152;" horiz-adv-x="1083" d="M30 353q0 107 28 183t76.5 115t102.5 56t118 17q173 0 256 -112v29q0 37 14.5 48.5t55.5 11.5h339q24 0 24 -24v-35q0 -16 -18 -16l-173 24v-124h181q10 0 10 -10v-49q0 -11 -10 -11h-181v-396q164 25 188 25q21 0 21 -16v-45q0 -24 -27 -24h-371q-35 0 -44 11.5t-9 45.5 v36q-84 -112 -256 -112q-64 0 -118 17t-102.5 56.5t-76.5 115.5t-28 183zM317 353q0 -121 43 -180.5t108 -62.5q-45 9 -78 69.5t-33 173.5t33 173.5t78 69.5q-65 -3 -108 -62.5t-43 -180.5zM399 353q0 -113 30.5 -163.5t75.5 -50.5t75.5 50.5t30.5 163.5q0 114 -30.5 164 t-75.5 50t-75.5 -50.5t-30.5 -163.5zM772 49l39 5v603l-39 5v-613z" />
<glyph unicode="&#x153;" horiz-adv-x="912" d="M26 250q0 72 26 125.5t70 83.5t95.5 44t109.5 14q96 0 174 -34q70 34 146 34q30 0 59.5 -6.5t63 -25.5t58.5 -48t41.5 -78t16.5 -112v-41h-221q8 -67 34.5 -96t59.5 -29q17 0 32.5 6.5t24.5 12.5t11 6q4 0 8 -5l18 -29q2 -6 2 -7q0 -3 -6 -9q-35 -30 -91 -51.5 t-118 -21.5q-81 0 -139 34q-66 -34 -174 -34q-59 0 -110 14t-95 43.5t-70 83t-26 126.5zM313 250q0 -92 37.5 -130.5t89.5 -38.5q-39 7 -62.5 43t-23.5 126q0 147 86 169q-45 0 -86 -39.5t-41 -129.5zM395 250q0 -90 21.5 -120t60.5 -30q82 0 82 154q0 146 -82 146t-82 -150 zM663 266h154q0 134 -76 134q-73 0 -78 -134z" />
<glyph unicode="&#x178;" horiz-adv-x="600" d="M0 667q0 16 10 25t23 9h267q40 0 49 -29l86 -236l78 225q1 2 2.5 7t2.5 7t2.5 6t3 5.5t3.5 4.5t3.5 4.5t4.5 3t6 2t7 0.5h45q17 0 17 -13q0 -9 -6 -24l-111 -282v-314q0 -35 -15.5 -51.5t-54.5 -16.5h-231q-36 0 -49.5 16t-13.5 52v303l-124 273q-5 11 -5 23zM190 829 q0 27 18.5 45.5t44.5 18.5q27 0 45.5 -18.5t18.5 -45.5q0 -26 -18.5 -45t-45.5 -19q-26 0 -44.5 19t-18.5 45zM271 660l143 -390v-229q24 0 31 5t7 26v201l-137 372q-4 15 -21 15h-23zM381 829q0 27 19 45.5t45 18.5t45 -18.5t19 -45.5q0 -26 -19 -45t-45 -19t-45 19t-19 45 z" />
<glyph unicode="&#x2c6;" horiz-adv-x="400" d="M41 621q0 3 4 7l148 126q6 3 7 3t7 -3l148 -126q5 -5 5 -7q0 -4 -3 -7l-33 -43q-4 -5 -8 -5q-3 0 -6 3l-110 77l-109 -77q-4 -3 -7 -3q-4 0 -8 5l-33 43q-2 4 -2 7z" />
<glyph unicode="&#x2dc;" horiz-adv-x="400" d="M39 602q6 51 32.5 86t65.5 35q27 0 67 -23.5t49 -23.5q14 0 22.5 7t11 15t4.5 21q0 5 12 5h52q9 0 7 -15q-8 -53 -34 -88.5t-64 -35.5q-27 0 -67.5 23.5t-48.5 23.5q-33 0 -37 -41q-1 -6 -16 -6h-49q-11 0 -7 17z" />
<glyph unicode="&#x2000;" horiz-adv-x="484" />
<glyph unicode="&#x2001;" horiz-adv-x="968" />
<glyph unicode="&#x2002;" horiz-adv-x="484" />
<glyph unicode="&#x2003;" horiz-adv-x="968" />
<glyph unicode="&#x2004;" horiz-adv-x="322" />
<glyph unicode="&#x2005;" horiz-adv-x="242" />
<glyph unicode="&#x2006;" horiz-adv-x="161" />
<glyph unicode="&#x2007;" horiz-adv-x="161" />
<glyph unicode="&#x2008;" horiz-adv-x="121" />
<glyph unicode="&#x2009;" horiz-adv-x="193" />
<glyph unicode="&#x200a;" horiz-adv-x="53" />
<glyph unicode="&#x2010;" horiz-adv-x="391" d="M49 175v117q0 10 10 10h273q10 0 10 -10v-117q0 -11 -10 -11h-273q-10 0 -10 11z" />
<glyph unicode="&#x2011;" horiz-adv-x="391" d="M49 175v117q0 10 10 10h273q10 0 10 -10v-117q0 -11 -10 -11h-273q-10 0 -10 11z" />
<glyph unicode="&#x2012;" horiz-adv-x="391" d="M49 175v117q0 10 10 10h273q10 0 10 -10v-117q0 -11 -10 -11h-273q-10 0 -10 11z" />
<glyph unicode="&#x2013;" d="M49 189v88q0 11 10 11h382q10 0 10 -11v-88q0 -10 -10 -10h-382q-10 0 -10 10z" />
<glyph unicode="&#x2014;" horiz-adv-x="1000" d="M0 189v88q0 11 10 11h980q10 0 10 -11v-88q0 -10 -10 -10h-980q-10 0 -10 10z" />
<glyph unicode="&#x2018;" horiz-adv-x="299" d="M31 650q0 11 13 18l70 46q5 4 11 4q11 0 19 -12l119 -203q6 -8 6 -15q0 -8 -10 -15l-49 -32q-9 -7 -17 -7t-16 12l-140 189q-6 7 -6 15z" />
<glyph unicode="&#x2019;" horiz-adv-x="299" d="M30 488q0 5 6 15l119 203q8 12 18 12q7 0 12 -4l70 -46q13 -7 13 -18q0 -6 -6 -15l-140 -189q-8 -12 -17 -12q-7 0 -16 7l-49 32q-10 7 -10 15z" />
<glyph unicode="&#x201a;" horiz-adv-x="299" d="M31 -33q0 8 6 16l140 189q8 12 16 12q7 0 17 -7l49 -32q9 -6 9 -15q0 -7 -5 -15l-119 -203q-7 -12 -18 -12q-7 0 -12 4l-70 46q-13 11 -13 17z" />
<glyph unicode="&#x201c;" horiz-adv-x="449" d="M31 636q0 8 13 17l70 46q5 4 12 4q10 0 18 -12l119 -203q5 -8 5 -15q0 -10 -9 -15l-49 -32q-10 -7 -17 -7t-16 12l-140 189q-6 9 -6 16zM181 733q0 8 13 17l70 46q8 4 12 4q10 0 18 -12l119 -203q5 -8 5 -15q0 -9 -9 -15l-49 -32q-10 -7 -17 -7t-16 12l-140 189 q-6 7 -6 16z" />
<glyph unicode="&#x201d;" horiz-adv-x="449" d="M31 570q0 5 6 15l119 203q7 12 18 12q4 0 12 -4l70 -46q13 -7 13 -17q0 -9 -6 -16l-140 -189q-9 -12 -17 -12q-4 0 -16 7l-49 32q-10 8 -10 15zM180 473q0 5 6 15l119 203q8 12 18 12q7 0 12 -4l70 -46q13 -9 13 -17q0 -7 -6 -16l-140 -189q-8 -12 -17 -12q-7 0 -16 7 l-49 32q-10 7 -10 15z" />
<glyph unicode="&#x201e;" horiz-adv-x="449" d="M31 64q0 8 6 16l140 189q8 12 16 12q7 0 17 -7l49 -32q9 -6 9 -15q0 -7 -5 -15l-119 -203q-7 -12 -18 -12q-7 0 -12 4l-70 46q-13 11 -13 17zM181 -33q0 8 6 16l140 189q8 12 16 12q7 0 17 -7l49 -32q9 -6 9 -15q0 -7 -5 -15l-119 -203q-7 -12 -18 -12q-7 0 -12 4l-70 46 q-13 9 -13 17z" />
<glyph unicode="&#x2022;" horiz-adv-x="339" d="M37 349q0 55 39 94t94 39t94 -39t39 -94t-39 -94t-94 -39t-94 39t-39 94zM187 439q36 -33 36 -90q0 -55 -35 -89q31 7 52 32t21 57q0 33 -21 58.5t-53 31.5z" />
<glyph unicode="&#x2026;" horiz-adv-x="978" d="M50 103q0 47 33 80t80 33t80 -33t33 -80t-33 -80t-80 -33t-80 33t-33 80zM171 32q27 3 45 23t18 48t-18 48t-45 23q26 -31 26 -71t-26 -71zM376 103q0 47 33 80t80 33t80 -33t33 -80t-33 -80t-80 -33t-80 33t-33 80zM498 32q27 3 45 23.5t18 47.5t-18 47.5t-45 23.5 q25 -32 25 -71t-25 -71zM702 103q0 47 33 80t80 33t80 -33t33 -80t-33 -80t-80 -33t-80 33t-33 80zM824 32q27 3 45 23.5t18 47.5t-18 47.5t-45 23.5q25 -32 25 -71t-25 -71z" />
<glyph unicode="&#x202f;" horiz-adv-x="193" />
<glyph unicode="&#x2039;" horiz-adv-x="293" d="M29 254q0 4 10 16l173 208q15 15 20 15q12 0 12 -15v-107q0 -34 -15 -49l-64 -68l64 -68q15 -15 15 -49v-107q0 -15 -12 -15q-9 0 -20 15l-173 208q-10 12 -10 16z" />
<glyph unicode="&#x203a;" horiz-adv-x="293" d="M49 30v107q0 34 14 49l65 68l-65 68q-14 15 -14 49v107q0 15 12 15q5 0 20 -15l173 -208q10 -12 10 -16t-10 -16l-173 -208q-11 -15 -20 -15q-12 0 -12 15z" />
<glyph unicode="&#x205f;" horiz-adv-x="242" />
<glyph unicode="&#x20ac;" horiz-adv-x="635" d="M17 237l10 36q3 11 13 11h28v40h-40q-14 0 -11 13l10 36q3 11 13 11h36q12 63 43.5 110t74 73t88 38t94.5 12q131 0 220 -68q6 -4 6 -8t-2 -7l-17 -27q-6 -7 -11 -7l-20 10q-19 10 -39 10q-33 0 -61 -30.5t-39 -105.5h111q15 0 12 -13l-10 -36q-3 -11 -13 -11h-105 q-1 -8 -1 -25v-15h90q14 0 11 -13l-10 -35q-2 -11 -13 -11h-74q10 -81 39 -114t63 -33q20 0 39 10l20 10q5 0 11 -7l17 -27q2 -2 2 -6q0 -5 -6 -9q-92 -68 -220 -68q-49 0 -95.5 12.5t-90 40t-74.5 76.5t-42 115h-46q-14 0 -11 12zM325 299q0 -128 44.5 -184t102.5 -56 q-17 4 -33 16t-33.5 37t-28.5 73.5t-11 113.5t10.5 113t28.5 73.5t34 38t33 16.5q-58 0 -102.5 -57t-44.5 -184z" />
<glyph unicode="&#x2122;" horiz-adv-x="765" d="M10 639v50q0 12 15 12h287q15 0 15 -12v-50q0 -7 -9 -7l-63 11v-242q0 -17 -7 -24.5t-28 -7.5h-103q-21 0 -27.5 7.5t-6.5 24.5v242q-54 -11 -64 -11q-9 0 -9 7zM207 393q22 0 22 14v244l-22 4v-262zM353 382v294q0 25 26 25h95q17 0 26 -13l60 -95l39 76q7 12 10 17 t12.5 10t23.5 5h66q33 0 33 -29v-271q0 -16 -6.5 -24t-26.5 -8h-107q-32 0 -32 32v124l-55 -109q-7 -16 -21 -16q-13 0 -22 15l-57 108q4 -120 5 -139q2 -15 -12 -15h-46q-11 0 -11 13zM452 678l85 -128l11 21l-67 100q-5 7 -14 7h-15zM695 393q15 0 19.5 2.5t4.5 11.5v256 q0 9 -5 12t-19 3v-285z" />
<glyph unicode="&#xe000;" d="M0 0v500h500v-500h-500z" />
</font>
</defs>
</svg>
